<svg xmlns="http://www.w3.org/2000/svg" viewBox="0 0 10000 10000">


    <symbol id="icon-pizza" viewBox="0 0 170 180">
        <g>
            <g>
                <path fill="#FFC524" d="M4.7,133.4h12.7c5.5,0,10,4.5,10,10v6.1c0,2.8-1.1,5.4-2.7,7.7c-1.6,2.2-2.4,5-1.8,8.1
			c0.7,4.1,4,7.5,8.2,8.3c6.7,1.3,12.5-3.8,12.5-10.2c0-2.4-0.8-4.6-2.2-6.4c-1.7-2.1-2.5-4.8-2.5-7.5v-6.1c0-5.5,4.5-10,10-10h5
			c3.1,0,5.7,2.5,5.7,5.7c0,2.8-1.1,5.4-2.7,7.7c-1.6,2.2-2.4,5-1.8,8.1c0.7,4.1,4,7.5,8.2,8.3c6.7,1.3,12.5-3.8,12.5-10.2
			c0-2.2-0.7-4.2-1.8-5.9c-1.8-2.5-2.9-5.5-2.9-8.6c0-2.8,2.3-5.1,5.1-5.1h9.5c5,0,9,4,9,9c0,6.8-1.7,13.4-4.1,19.8
			c-0.6,1.7-0.8,3.6-0.5,5.6c0.7,4.1,4,7.5,8.2,8.3c6.7,1.3,12.5-3.8,12.5-10.2c0-1.4-0.3-2.7-0.7-3.9c-2.8-7-4-14.5-4-22.1
			c0-3.6,2.9-6.5,6.5-6.5h38.6c0-2.7-0.1-5.5-0.2-8.2h-140L4.7,133.4z"/>
            </g>
            <g>
                <path fill="#1A212B" d="M165.7,135.4c-1.1,0-2-0.9-2-2c0-50.3-24.2-98.2-64.9-128.1c-0.9-0.7-1.1-1.9-0.4-2.8
			c0.7-0.9,1.9-1.1,2.8-0.4c41.6,30.7,66.5,79.8,66.5,131.4C167.7,134.5,166.8,135.4,165.7,135.4z"/>
            </g>
            <g>
                <path fill="#1A212B" d="M100,178.3c-0.8,0-1.6-0.1-2.5-0.2c-5-1-8.9-5-9.8-9.9c-0.4-2.2-0.2-4.5,0.6-6.6
			c2.7-7.1,3.9-13.3,3.9-19.1c0-3.9-3.1-7-7-7h-9.5c-1.7,0-3.1,1.4-3.1,3.1c0,2.5,0.9,5,2.5,7.4c1.4,2.1,2.2,4.5,2.2,7
			c0,3.7-1.6,7.2-4.5,9.6c-2.9,2.4-6.7,3.3-10.4,2.6c-5-1-8.9-5-9.8-9.9c-0.6-3.4,0.2-6.8,2.2-9.6c1.5-2.1,2.3-4.3,2.3-6.5
			c0-2-1.6-3.7-3.7-3.7h-5c-4.4,0-8,3.6-8,8v6.1c0,2.3,0.8,4.5,2.1,6.2c1.7,2.2,2.6,4.8,2.6,7.6c0,3.7-1.6,7.2-4.5,9.6
			c-2.9,2.4-6.7,3.3-10.4,2.6c-5-1-8.9-5-9.8-9.9c-0.6-3.4,0.2-6.8,2.2-9.6c1.5-2.1,2.3-4.3,2.3-6.5v-6.1c0-4.4-3.6-8-8-8H4.7
			c-0.8,0-1.5-0.4-1.8-1.1c-0.3-0.7-0.3-1.5,0.2-2.1L89.7,14.4c0.3-0.4,0.8-0.7,1.3-0.8c0.5-0.1,1.1,0.1,1.5,0.4
			c18.3,13.5,33.5,31.3,44,51.5c10.9,21.1,16.5,44,16.5,68c0,1.1-0.9,2-2,2h-38.6c-2.5,0-4.5,2-4.5,4.5c0,7.8,1.3,14.9,3.9,21.3
			c0.6,1.5,0.9,3,0.9,4.6c0,3.7-1.7,7.2-4.5,9.6C105.7,177.3,102.9,178.3,100,178.3z M75.9,131.4h9.5c6.1,0,11,5,11,11
			c0,6.3-1.4,13-4.2,20.5c-0.5,1.4-0.7,2.9-0.4,4.5c0.6,3.3,3.3,6.1,6.6,6.7c2.6,0.5,5.1-0.1,7.1-1.7c1.9-1.6,3.1-4,3.1-6.5
			c0-1.1-0.2-2.1-0.6-3.1c-2.8-6.9-4.1-14.6-4.1-22.8c0-4.7,3.8-8.6,8.6-8.6h36.6c-0.6-44.2-21.9-86.2-57.2-113l-83,113h8.7
			c6.6,0,12,5.4,12,12v6.1c0,3.1-1.1,6.1-3.1,8.9c-1.4,1.9-1.9,4.2-1.5,6.5c0.6,3.3,3.3,6.1,6.6,6.7c2.6,0.5,5.1-0.1,7.1-1.8
			c1.9-1.6,3.1-4,3.1-6.5c0-1.9-0.6-3.7-1.8-5.2c-1.9-2.5-3-5.5-3-8.7v-6.1c0-6.6,5.4-12,12-12h5c4.2,0,7.7,3.5,7.7,7.7
			c0,3.1-1.1,6.1-3.1,8.9c-1.4,1.9-1.9,4.2-1.5,6.5c0.6,3.3,3.3,6.1,6.6,6.7c2.6,0.5,5.1-0.1,7.1-1.8c1.9-1.6,3.1-4,3.1-6.5
			c0-1.7-0.5-3.4-1.5-4.8c-2.1-3.1-3.3-6.4-3.3-9.7C68.8,134.6,71.9,131.4,75.9,131.4z"/>
            </g>
            <g>
                <path fill="#1A212B" d="M97.7,120.4c-7.9,0-14.4-6.5-14.4-14.4s6.5-14.4,14.4-14.4c7.9,0,14.4,6.5,14.4,14.4
			S105.7,120.4,97.7,120.4z M97.7,95.6c-5.7,0-10.4,4.7-10.4,10.4s4.7,10.4,10.4,10.4s10.4-4.7,10.4-10.4S103.4,95.6,97.7,95.6z"/>
            </g>
            <g>
                <path fill="#1A212B" d="M72.4,81.3c-4.1,0-7.4-3.3-7.4-7.4c0-4.1,3.3-7.4,7.4-7.4s7.4,3.3,7.4,7.4C79.8,78,76.5,81.3,72.4,81.3z
			 M72.4,70.5c-1.9,0-3.4,1.5-3.4,3.4c0,1.9,1.5,3.4,3.4,3.4s3.4-1.5,3.4-3.4C75.8,72.1,74.3,70.5,72.4,70.5z"/>
            </g>
            <g>
                <path fill="#1A212B" d="M132.9,121c-4.1,0-7.4-3.3-7.4-7.4c0-4.1,3.3-7.4,7.4-7.4s7.4,3.3,7.4,7.4C140.3,117.7,137,121,132.9,121z
			 M132.9,110.3c-1.9,0-3.4,1.5-3.4,3.4c0,1.9,1.5,3.4,3.4,3.4s3.4-1.5,3.4-3.4C136.3,111.8,134.8,110.3,132.9,110.3z"/>
            </g>
            <g>
                <path fill="#1A212B" d="M48.1,117.3c-5.3,0-9.5-4.3-9.5-9.5s4.3-9.5,9.5-9.5c5.3,0,9.5,4.3,9.5,9.5S53.4,117.3,48.1,117.3z
			 M48.1,102.2c-3,0-5.5,2.5-5.5,5.5s2.5,5.5,5.5,5.5c3,0,5.5-2.5,5.5-5.5S51.2,102.2,48.1,102.2z"/>
            </g>
            <g>
                <path fill="#1A212B" d="M101.5,77.9c0,0-0.1,0-0.1,0c-0.5,0-1-0.3-1.4-0.7l-8.7-9.7c-0.4-0.4-0.5-0.9-0.5-1.5c0-0.5,0.3-1,0.7-1.4
			l6.5-5.9c-0.2-2.9,0.7-5.6,2.6-7.3c2-1.8,4.7-2.4,7.7-1.8c2.8,0.6,5.4,2.2,7.5,4.5c4.5,5,4.9,11.9,1,15.4l0,0
			c-1.9,1.7-4.6,2.4-7.5,1.8l-6.5,5.9C102.5,77.7,102,77.9,101.5,77.9z M95.7,66.4l6,6.7l5.8-5.2c0.5-0.5,1.2-0.6,1.9-0.4
			c1.9,0.6,3.7,0.3,4.8-0.7c2.2-2,1.6-6.4-1.4-9.7c-1.5-1.7-3.4-2.9-5.3-3.3c-1.7-0.4-3.2,0-4.2,0.9c-1.1,1-1.6,2.7-1.2,4.7
			c0.1,0.7-0.1,1.4-0.6,1.9L95.7,66.4z M115.6,68.2L115.6,68.2L115.6,68.2z"/>
            </g>
        </g>
    </symbol>

    <symbol id="icon-roll" viewBox="0 0 170 180">
        <g>
            <path fill="#FFC524" d="M2.7,118.1c0,6.8,1.8,13.2,5,18.7h154.5c3.2-5.5,5-11.9,5-18.7H2.7z"/>

            <path fill="none" stroke="#1A212B" stroke-width="3.813" stroke-linecap="round" stroke-linejoin="round" stroke-miterlimit="10" d="
		M129.9,155.5H40.1c-20.6,0-37.4-16.7-37.4-37.4l0,0h164.5l0,0C167.3,138.8,150.5,155.5,129.9,155.5z"/>

            <path fill="none" stroke="#1A212B" stroke-width="3.813" stroke-linecap="round" stroke-linejoin="round" stroke-miterlimit="10" d="
		M28.6,169.6l1.7-3.7c2.8-6.3,9-10.3,15.9-10.3h77.8c6.9,0,13.1,4,15.9,10.3l1.7,3.7"/>

            <line fill="none" stroke="#1A212B" stroke-width="3.813" stroke-linecap="round" stroke-linejoin="round" stroke-miterlimit="10" x1="47.1" y1="169.6" x2="122.9" y2="169.6"/>
            <g>

                <line fill="none" stroke="#1A212B" stroke-width="3.813" stroke-linecap="round" stroke-linejoin="round" stroke-miterlimit="10" x1="167.9" y1="80.3" x2="55" y2="10"/>

                <line fill="none" stroke="#1A212B" stroke-width="3.813" stroke-linecap="round" stroke-linejoin="round" stroke-miterlimit="10" x1="93.4" y1="23.5" x2="115" y2="10"/>

                <line fill="none" stroke="#1A212B" stroke-width="3.813" stroke-linecap="round" stroke-linejoin="round" stroke-miterlimit="10" x1="2.1" y1="80.3" x2="76.8" y2="33.8"/>
            </g>
            <g>

                <path fill="none" stroke="#1A212B" stroke-width="3.813" stroke-linecap="round" stroke-linejoin="round" stroke-miterlimit="10" d="
			M80.5,76.2c0-9.4-7.6-17-17-17c-9.4,0-16.9,7.6-16.9,17c0,9.4,7.6,17,16.9,17C72.9,93.1,80.5,85.6,80.5,76.2z"/>

                <path fill="none" stroke="#1A212B" stroke-width="3.813" stroke-linecap="round" stroke-linejoin="round" stroke-miterlimit="10" d="
			M69.7,76.2c0-3.4-2.8-6.2-6.2-6.2c-3.4,0-6.2,2.8-6.2,6.2c0,3.4,2.8,6.2,6.2,6.2C66.9,82.4,69.7,79.6,69.7,76.2z"/>
            </g>
            <g>

                <path fill="none" stroke="#1A212B" stroke-width="3.813" stroke-linecap="round" stroke-linejoin="round" stroke-miterlimit="10" d="
			M126.2,76.2c0-9.4-7.6-17-17-17c-9.4,0-16.9,7.6-16.9,17c0,9.4,7.6,17,16.9,17C118.6,93.1,126.2,85.6,126.2,76.2z"/>

                <path fill="none" stroke="#1A212B" stroke-width="3.813" stroke-linecap="round" stroke-linejoin="round" stroke-miterlimit="10" d="
			M115.5,76.2c0-3.4-2.8-6.2-6.2-6.2c-3.4,0-6.2,2.8-6.2,6.2c0,3.4,2.8,6.2,6.2,6.2C112.7,82.4,115.5,79.6,115.5,76.2z"/>
            </g>
            <g>
            <g>

                <path fill="none" stroke="#1A212B" stroke-width="3.813" stroke-linecap="round" stroke-linejoin="round" stroke-miterlimit="10" d="
            M57.6,101.2c0-9.4-7.6-17-16.9-17c-9.4,0-16.9,7.6-16.9,17s7.6,17,16.9,17C50,118.1,57.6,110.6,57.6,101.2z"/>

                <path fill="none" stroke="#1A212B" stroke-width="3.813" stroke-linecap="round" stroke-linejoin="round" stroke-miterlimit="10" d="
            M46.9,101.2c0-3.4-2.8-6.2-6.2-6.2c-3.4,0-6.2,2.8-6.2,6.2c0,3.4,2.8,6.2,6.2,6.2C44.1,107.4,46.9,104.6,46.9,101.2z"/>
            </g>
            <g>

                <path fill="none" stroke="#1A212B" stroke-width="3.813" stroke-linecap="round" stroke-linejoin="round" stroke-miterlimit="10" d="
            M103.3,101.2c0-9.4-7.6-17-16.9-17c-9.4,0-17,7.6-17,17s7.6,17,17,17C95.7,118.1,103.3,110.6,103.3,101.2z"/>

                <path fill="none" stroke="#1A212B" stroke-width="3.813" stroke-linecap="round" stroke-linejoin="round" stroke-miterlimit="10" d="
            M92.6,101.2c0-3.4-2.8-6.2-6.2-6.2c-3.4,0-6.2,2.8-6.2,6.2c0,3.4,2.8,6.2,6.2,6.2C89.8,107.4,92.6,104.6,92.6,101.2z"/>
            </g>
            </g>
            <g>
                <path fill="none" stroke="#1A212B" stroke-width="3.813" stroke-linecap="round" stroke-linejoin="round" stroke-miterlimit="10" d="
			M149,101.2c0-9.4-7.6-17-16.9-17c-9.4,0-16.9,7.6-16.9,17s7.6,17,16.9,17C141.4,118.1,149,110.6,149,101.2z"/>

                <path fill="none" stroke="#1A212B" stroke-width="3.813" stroke-linecap="round" stroke-linejoin="round" stroke-miterlimit="10" d="
			M138.2,101.2c0-3.4-2.8-6.2-6.2-6.2c-3.4,0-6.2,2.8-6.2,6.2c0,3.4,2.8,6.2,6.2,6.2C135.5,107.4,138.2,104.6,138.2,101.2z"/>
            </g>
        </g>
    </symbol>

    <symbol id="icon-salad" viewBox="0 0 170 180">
        <g>

            <path fill="none" stroke="#344154" stroke-width="3.5312" stroke-linecap="round" stroke-linejoin="round" stroke-miterlimit="10" d="
		M125,102.1c0,0,7.7-1.8,11.7-5.9c2.2-2.3,0.2-6.1-2.9-5.7l-3.2,0.4c-0.6,0.1-0.9-0.7-0.4-1c2.4-1.5,6-4.2,8.1-7.6
		c1.6-2.6-0.9-5.9-3.9-5l-5.3,2.5c-0.5,0.1-1-0.4-0.7-0.8c3-3.3,8-13.3,0.9-15.1c-7.1-1.8-7.5,9.4-6.4,13.7c0.1,0.5-0.6,0.7-1,0.4
		l-3.4-4.7c-2.2-2.2-6-0.5-5.8,2.6c0.2,4,2.1,8,3.5,10.5c0.3,0.5-0.3,1.1-0.8,0.7l-2.6-1.9c-2.6-1.8-6.1,0.6-5.3,3.6
		c1.5,5.4,7.5,10.7,7.5,10.7"/>

            <path fill="none" stroke="#344154" stroke-width="3.5312" stroke-linecap="round" stroke-linejoin="round" stroke-miterlimit="10" d="
		M125,102.1c0,0,7.7-1.8,11.7-5.9c2.2-2.3,0.2-6.1-2.9-5.7l-3.2,0.4c-0.6,0.1-0.9-0.7-0.4-1c2.4-1.5,6-4.2,8.1-7.6
		c1.6-2.6-0.9-5.9-3.9-5l-5.3,2.5c-0.5,0.1-1-0.4-0.7-0.8c3-3.3,8-13.3,0.9-15.1c-7.1-1.8-7.5,9.4-6.4,13.7c0.1,0.5-0.6,0.7-1,0.4
		l-3.4-4.7c-2.2-2.2-6-0.5-5.8,2.6c0.2,4,2.1,8,3.5,10.5c0.3,0.5-0.3,1.1-0.8,0.7l-2.6-1.9c-2.6-1.8-6.1,0.6-5.3,3.6
		c1.5,5.4,7.5,10.7,7.5,10.7"/>

            <path fill="none" stroke="#344154" stroke-width="3.5312" stroke-linecap="round" stroke-linejoin="round" stroke-miterlimit="10" d="
		M130.1,108.4c0,0,6.3,4.9,11.9,5.3c3.2,0.3,4.9-3.7,2.6-5.9l-2.3-2.2c-0.4-0.4,0-1.1,0.6-1c2.7,0.9,7,2,11,1.5
		c3.1-0.4,4-4.4,1.4-6.2l-5.3-2.5c-0.4-0.3-0.3-1.1,0.2-1c4.5,0.2,15.4-2.2,12.3-8.9c-3.1-6.7-12,0.1-14.7,3.7c-0.3,0.4-1,0-0.9-0.5
		l1.5-5.7"/>

            <line fill="none" stroke="#344154" stroke-width="3.5312" stroke-linecap="round" stroke-linejoin="round" stroke-miterlimit="10" x1="118.3" y1="107.2" x2="121.5" y2="94.5"/>

            <path fill="none" stroke="#344154" stroke-width="3.5312" stroke-linecap="round" stroke-linejoin="round" stroke-miterlimit="10" d="
		M107.4,102.7c0,0-7.8,1.3-13-1c-2.9-1.3-2.6-5.5,0.5-6.4l3.1-0.9c0.6-0.2,0.5-1-0.1-1.1c-2.8-0.5-7.2-1.5-10.4-3.9
		c-2.5-1.8-1.4-5.8,1.7-6.1l5.9,0.3c0.5-0.1,0.8-0.8,0.3-1c-4-1.9-12.5-9.2-6.6-13.6c5.9-4.4,10.5,5.8,11.2,10.2
		c0.1,0.5,0.9,0.4,1,0l1.4-5.7"/>
        </g>
        <g>

            <path fill="none" stroke="#344154" stroke-width="3.9546" stroke-linecap="round" stroke-linejoin="round" stroke-miterlimit="10" d="
		M128.6,157.2H42.7c-19.8,0-35.8-16-35.8-35.8l0,0h157.5l0,0C164.4,141.2,148.4,157.2,128.6,157.2z"/>
            <path fill="#FFC524" d="M15.9,129.3c1.1,3.7,3,7.1,5.4,10H150c2.4-2.9,4.3-6.3,5.4-10H15.9z"/>

            <path fill="none" stroke="#344154" stroke-width="3.9546" stroke-linecap="round" stroke-linejoin="round" stroke-miterlimit="10" d="
		M31.7,170.6l1.6-3.6c2.7-6,8.6-9.9,15.2-9.9h74.5c6.6,0,12.5,3.9,15.2,9.9l1.6,3.6"/>

            <line fill="none" stroke="#344154" stroke-width="3.9546" stroke-linecap="round" stroke-linejoin="round" stroke-miterlimit="10" x1="49.4" y1="170.6" x2="121.9" y2="170.6"/>
        </g>
        <g>
            <path fill="none" stroke="#344154" stroke-width="3.5312" stroke-linejoin="round" stroke-miterlimit="10" d="M72.7,67
		c0,0-5.5,14.6,1.8,31.7l-6.9,3L57.3,106c-5.8-13.6-14.2-19.9-19.4-22.6"/>
            <path fill="none" stroke="#344154" stroke-width="3.5312" stroke-linejoin="round" stroke-miterlimit="10" d="M41.2,77.1
		c3.8,1.9,8.3,4.4,13.2,10.3l-5.2-12.2"/>
            <path fill="none" stroke="#344154" stroke-width="3.5312" stroke-linejoin="round" stroke-miterlimit="10" d="M55.4,72.1l6,14
		c0.6,1.4,2.7,0.9,2.6-0.6c-0.1-5.2,0.4-12.2,2.8-19.4"/>

            <path fill="none" stroke="#344154" stroke-width="3.5312" stroke-linecap="round" stroke-linejoin="round" stroke-miterlimit="10" d="
		M62.4,63.4c-1.4-1.3-2.5-2.8-3.3-4.7c-1.1-2.5-1.3-5.1-0.9-7.5"/>
            <path fill="none" stroke="#344154" stroke-width="3.5312" stroke-linejoin="round" stroke-miterlimit="10" d="M71.2,39.8
		c-0.1-1-0.3-2-0.7-3c-2.1-4.9-7.7-7.2-12.6-5.1c-1.2,0.5-2.3,1.2-3.1,2.1c-6.3-4.3-14.7-5.4-22.3-2.2c-5.9,2.5-10.2,7.1-12.5,12.6
		c-0.9,0.2-1.7,0.4-2.6,0.8c-6.6,2.8-9.7,10.5-6.9,17.1c0.3,0.6,0.6,1.2,0.9,1.8c-2.7,4.4-3.3,10-1.2,15.1
		c3.6,8.4,13.2,12.3,21.6,8.7c5-2.1,8-5.7,9.2-10.6c3.1,0,6-0.9,9.7-2.5c5.3-2.3,9.4-6.3,11.7-11.1C66.3,67,72,68.1,77,65.9
		c6.9-2.9,10.2-11,7.2-17.9C81.9,42.7,76.7,39.6,71.2,39.8z"/>
            <path fill="#FFC524" d="M55.2,38.7c-18.6-3.8-21,6.3-21,6.3c-2.2-2.1-4.9-3.6-7.8-4.3c2-2.4,4.5-4.3,7.5-5.6
		c6.1-2.6,13.1-1.9,18.7,1.8L55.2,38.7z"/>

            <path fill="none" stroke="#344154" stroke-width="3.5312" stroke-linecap="round" stroke-linejoin="round" stroke-miterlimit="10" d="
		M19.8,69.8c-3.4-0.7-6.4-2.8-8.3-5.9"/>

            <path fill="none" stroke="#344154" stroke-width="3.5312" stroke-linecap="round" stroke-linejoin="round" stroke-miterlimit="10" d="
		M20,44.2c4.3-0.9,8.6,0.5,11.7,3.4"/>
            <g>
                <path fill="#FFC524" d="M34.4,81.6c-1.1,1.1-2.4,1.9-4,2.6c-6.4,2.7-13.9-0.3-16.6-6.7c-0.9-2.1-1.2-4.5-0.9-6.7
			c1.8,1.3,3.9,2.2,6.1,2.7C19,73.4,20.3,84.5,34.4,81.6z"/>
            </g>
        </g>
    </symbol>

    <symbol id="icon-pot" viewBox="0 0 170 180">
        <g>

            <path fill="none" stroke="#344154" stroke-width="3.748" stroke-linecap="round" stroke-linejoin="round" stroke-miterlimit="10" d="
		M159.9,91.8H12.4c-4.4,0-7.9-3.5-7.9-7.9l0,0c0-4.4,3.5-7.9,7.9-7.9h147.5c4.4,0,7.9,3.5,7.9,7.9l0,0
		C167.9,88.2,164.3,91.8,159.9,91.8z"/>

            <path fill="none" stroke="#344154" stroke-width="3.748" stroke-linecap="round" stroke-linejoin="round" stroke-miterlimit="10" d="
		M163.2,91.1c0,0-1.5,43.6-40.4,57.5H86.2H49.6C10.8,134.7,9.2,91.1,9.2,91.1"/>

            <path fill="none" stroke="#344154" stroke-width="3.748" stroke-linecap="round" stroke-linejoin="round" stroke-miterlimit="10" d="
		M163.2,91.1c0,0-1.5,43.6-40.4,57.5H86.2H49.6C10.8,134.7,9.2,91.1,9.2,91.1H163.2z"/>

            <path fill="none" stroke="#344154" stroke-width="3.748" stroke-linecap="round" stroke-linejoin="round" stroke-miterlimit="10" d="
		M122.7,148.6c0,0,0.1,0.1,0.1,0.3c1.8,5.2-2.2,10.6-7.7,10.6h-29h-29c-5.5,0-9.5-5.4-7.7-10.6c0.1-0.2,0.1-0.3,0.1-0.3"/>

            <path fill="none" stroke="#344154" stroke-width="3.748" stroke-linecap="round" stroke-linejoin="round" stroke-miterlimit="10" d="
		M125.1,74.5L148.9,42c2.1-3,5.9-3.9,9-2l0,0c3,2,3.8,6,1.8,9L139,76"/>
            <path fill="#FFC524" d="M34.8,98.6H17.7C20,110.3,27.4,132,51,141.1h0.8C37.3,124.9,34.8,98.6,34.8,98.6z"/>

            <path fill="none" stroke="#344154" stroke-width="3.748" stroke-linecap="round" stroke-linejoin="round" stroke-miterlimit="10" d="
		M62,62c0,0-9-5,0-14s0-17,0-17"/>

            <path fill="none" stroke="#344154" stroke-width="3.748" stroke-linecap="round" stroke-linejoin="round" stroke-miterlimit="10" d="
		M82,62c0,0-9-5,0-14s0-17,0-17"/>

            <path fill="none" stroke="#344154" stroke-width="3.748" stroke-linecap="round" stroke-linejoin="round" stroke-miterlimit="10" d="
		M102,62c0,0-9-5,0-14s0-17,0-17"/>
        </g>
    </symbol>

    <symbol id="icon-pasta" viewBox="0 0 170 180">
        <g>

            <path fill="none" stroke="#344154" stroke-width="4.0391" stroke-linecap="round" stroke-linejoin="round" stroke-miterlimit="10" d="
		M128.4,157.3H40.6c-20.2,0-36.6-16.4-36.6-36.6l0,0h160.9l0,0C164.9,140.9,148.6,157.3,128.4,157.3z"/>
            <path fill="#FFC524" d="M13.3,128.8c1.1,3.8,3,7.2,5.5,10.2h131.4c2.5-3,4.4-6.4,5.5-10.2H13.3z"/>

            <path fill="none" stroke="#344154" stroke-width="4.0391" stroke-linecap="round" stroke-linejoin="round" stroke-miterlimit="10" d="
		M29.3,171l1.6-3.6c2.7-6.1,8.8-10.1,15.5-10.1h76.1c6.7,0,12.8,4,15.5,10.1l1.6,3.6"/>

            <line fill="none" stroke="#344154" stroke-width="4.0391" stroke-linecap="round" stroke-linejoin="round" stroke-miterlimit="10" x1="47.5" y1="171" x2="121.5" y2="171"/>

            <path fill="none" stroke="#344154" stroke-width="4.0391" stroke-linecap="round" stroke-linejoin="round" stroke-miterlimit="10" d="
		M12.7,120.7c-0.1-1.2-0.2-2.5-0.2-3.7c0-13.7,8.6-25.4,20.7-29.9"/>

            <path fill="none" stroke="#344154" stroke-width="4.0391" stroke-linecap="round" stroke-linejoin="round" stroke-miterlimit="10" d="
		M21.3,120.7c-0.2-1.2-0.3-2.5-0.3-3.7c0-8.7,4.8-16.3,11.9-20.3"/>

            <path fill="none" stroke="#344154" stroke-width="4.0391" stroke-linecap="round" stroke-linejoin="round" stroke-miterlimit="10" d="
		M73.5,89.2C79,79.5,89.3,73,101.2,73c17.6,0,31.9,14.3,31.9,31.9c0,5.7-1.5,11.1-4.2,15.8"/>

            <path fill="none" stroke="#344154" stroke-width="4.0391" stroke-linecap="round" stroke-linejoin="round" stroke-miterlimit="10" d="
		M82.3,91.2c4.3-5.8,11.1-9.6,18.9-9.6c12.9,0,23.4,10.5,23.4,23.4c0,6.1-2.3,11.6-6.2,15.8"/>

            <path fill="none" stroke="#344154" stroke-width="4.0391" stroke-linecap="round" stroke-linejoin="round" stroke-miterlimit="10" d="
		M41.5,106.1c-1.9-4.1-2.9-8.6-2.9-13.4c0-17.6,14.3-31.9,31.9-31.9c7.7,0,14.8,2.7,20.3,7.3"/>

            <path fill="none" stroke="#344154" stroke-width="4.0391" stroke-linecap="round" stroke-linejoin="round" stroke-miterlimit="10" d="
		M102.1,88.2c0.2,1.5,0.3,2.9,0.3,4.4c0,4.6-1,9-2.8,13"/>

            <path fill="none" stroke="#344154" stroke-width="4.0391" stroke-linecap="round" stroke-linejoin="round" stroke-miterlimit="10" d="
		M49,98.1c-0.4-1.7-0.7-3.6-0.7-5.4c0-12.2,9.9-22.2,22.1-22.2c3.7,0,7.2,0.9,10.2,2.5"/>

            <path fill="none" stroke="#344154" stroke-width="4.0391" stroke-linecap="round" stroke-linejoin="round" stroke-miterlimit="10" d="
		M92.5,90.2c0.1,0.8,0.1,1.7,0.1,2.5c0,1.6-0.2,3.1-0.5,4.6"/>

            <path fill="none" stroke="#344154" stroke-width="4.0391" stroke-linecap="round" stroke-linejoin="round" stroke-miterlimit="10" d="
		M136.7,91.4c11.8,2.6,20.7,13.1,20.7,25.7c0,1.2-0.1,2.5-0.3,3.7"/>

            <path fill="none" stroke="#344154" stroke-width="4.0391" stroke-linecap="round" stroke-linejoin="round" stroke-miterlimit="10" d="
		M138.1,99.8c6.8,2.8,11.6,9.5,11.6,17.3c0,1.3-0.1,2.5-0.4,3.7"/>
            <g>

                <path fill="none" stroke="#344154" stroke-width="4.0391" stroke-linecap="round" stroke-linejoin="round" stroke-miterlimit="10" d="
			M97.5,120.7c-1-14-12.7-25.1-27-25.1s-26,11.1-27,25.1"/>

                <path fill="none" stroke="#344154" stroke-width="4.0391" stroke-linecap="round" stroke-linejoin="round" stroke-miterlimit="10" d="
			M52.1,120.7c0.9-9.3,8.8-16.6,18.4-16.6c9.6,0,17.4,7.3,18.4,16.6"/>
            </g>
            <g>

                <line fill="none" stroke="#344154" stroke-width="4.0391" stroke-linecap="round" stroke-linejoin="round" stroke-miterlimit="10" x1="3.5" y1="77.8" x2="113.8" y2="9"/>

                <line fill="none" stroke="#344154" stroke-width="4.0391" stroke-linecap="round" stroke-linejoin="round" stroke-miterlimit="10" x1="76.3" y1="22.2" x2="55.2" y2="9"/>

                <line fill="none" stroke="#344154" stroke-width="4.0391" stroke-linecap="round" stroke-linejoin="round" stroke-miterlimit="10" x1="165.5" y1="77.8" x2="92.5" y2="32.3"/>
            </g>
        </g>

    </symbol>

    <symbol id="icon-risotto" viewBox="0 0 170 180">
        <path fill="none" stroke="#344154" stroke-width="4.0493" stroke-linecap="round" stroke-linejoin="round" stroke-miterlimit="10" d="
	M56.8,53.5c27.9,3.3,40.6,28.5,54.3,42.4s32.8,2,43.8,10.1c22.8,16.7-0.5,50.8-27.2,55c-13.7,2.1-86.6-0.1-86.6-0.1
	S1.2,146.1,9.8,94.1C16.6,52.6,45.3,52.1,56.8,53.5z"/>
        <line fill="none" stroke="#344154" stroke-width="4.0493" stroke-linecap="round" stroke-miterlimit="10" x1="12.6" y1="129.4" x2="57" y2="69.3"/>
        <line fill="none" stroke="#344154" stroke-width="4.0493" stroke-linecap="round" stroke-miterlimit="10" x1="68.5" y1="161" x2="105.1" y2="111.5"/>
        <line fill="none" stroke="#344154" stroke-width="4.0493" stroke-linecap="round" stroke-miterlimit="10" x1="106.6" y1="161.4" x2="138.1" y2="118.7"/>
        <line fill="none" stroke="#344154" stroke-width="4.0493" stroke-linecap="round" stroke-miterlimit="10" x1="34.1" y1="156.5" x2="46" y2="140.5"/>
        <line fill="none" stroke="#344154" stroke-width="4.0493" stroke-linecap="round" stroke-miterlimit="10" x1="70" y1="103.8" x2="82.4" y2="87"/>
        <circle fill="none" stroke="#344154" stroke-width="4.0493" stroke-linecap="round" stroke-miterlimit="10" cx="59.7" cy="117.4" r="15.7"/>
        <path fill="none" stroke="#344154" stroke-width="4.0493" stroke-linecap="round" stroke-linejoin="round" stroke-miterlimit="10" d="
	M119.3,31.3c-7.3,7-9.1,13.8-3.7,23c5.4,9.1,7.9,15.6-1.9,24.4"/>
        <path fill="none" stroke="#344154" stroke-width="4.0493" stroke-linecap="round" stroke-linejoin="round" stroke-miterlimit="10" d="
	M95.7,30c-6.2,7.7-8.3,13.7-1.9,21.7c6.3,8,0.2,12.3,0.2,12.3"/>
        <path fill="none" stroke="#344154" stroke-width="4.0493" stroke-linecap="round" stroke-linejoin="round" stroke-miterlimit="10" d="
	M71.2,30c-3.4,4.2-5.1,10.1,0.1,14.8"/>
        <path fill="#FFC524" d="M14.5,103.5c0,0,0.6-17.2,9.8-29.5s19.1-15.3,22.7-16L14.5,103.5z"/>
    </symbol>

    <symbol id="icon-garnish" viewBox="0 0 170  180">
        <g>
            <g>
                <path fill="#344154" d="M107.2,169H70.3c-1,0-1.9-0.8-1.9-1.9c0-29.1-10.9-46.9-17.3-54.9l2.9-2.3c6.6,8.2,17.7,26.2,18.2,55.3
			h33.2c0.7-35.9,20.9-57.5,21.8-58.4l2.7,2.6c-0.2,0.2-20.8,22.2-20.8,57.7C109,168.2,108.2,169,107.2,169z"/>
            </g>
            <g>
                <path fill="#344154" d="M79.4,132.9c-0.8,0-1.5-0.5-1.8-1.3c-4.1-13.6-10-21.4-15.7-28.2l2.8-2.4c4.4,5.3,8.9,11.1,12.7,19.6
			v-15.7h3.7V131c0,0.9-0.7,1.7-1.6,1.8C79.6,132.9,79.5,132.9,79.4,132.9z"/>
            </g>
            <g>
                <path fill="#344154" d="M96,138.7c-0.3,0-0.6,0-0.9-0.1c-2.2-0.4-3.7-2.3-3.7-4.5V104h3.7v30.1c0,0.6,0.4,0.8,0.7,0.9
			c0.3,0.1,0.7,0,1-0.5c5-12.8,11.9-24.1,20.4-33.5l2.8,2.5c-8.2,9.2-14.9,20.1-19.7,32.4C99.5,137.6,97.8,138.7,96,138.7z"/>
            </g>
            <g>
                <path fill="#344154" d="M112.6,95.6c-0.7,0-1.4-0.4-1.7-1.1c-1.7-3.7-2.5-7.7-2.5-11.8c0-5.5,1.5-10.8,4.5-15.4
			c0.5-0.9,1.7-1.1,2.6-0.6c0.9,0.5,1.1,1.7,0.6,2.6c-2.5,4-3.9,8.6-3.9,13.4c0,3.6,0.7,7,2.2,10.3c0.4,0.9,0,2-0.9,2.5
			C113.1,95.5,112.8,95.6,112.6,95.6z"/>
            </g>
            <g>
                <path fill="#344154" d="M38.4,116c-18.9,0-34.3-15.4-34.3-34.3c0-10.7,5.1-20.9,13.6-27.4c-0.1-1-0.2-2-0.2-3.1
			c0-15.2,12.4-27.6,27.6-27.6c1.6,0,3.2,0.1,4.7,0.4c8.9-8.5,20.6-13.1,33-13.1c15.9,0,30.5,7.7,39.5,20.8c2.1-0.7,4.3-1.1,6.6-1.1
			c11.5,0,20.8,9.4,20.8,20.8c0,1.7-0.2,3.4-0.6,5c10.2,4.7,16.8,14.8,16.8,26.1c0,15.9-12.9,28.8-28.8,28.8c-10.4,0-20-5.7-25-14.6
			c-8.4,6.4-18.7,10-29.2,10c-7.6,0-13.5-0.4-19-2.5C57.5,112.1,49,116,38.4,116z M45.2,27.5c-13.2,0-23.9,10.7-23.9,23.9
			c0,1.2,0.1,2.4,0.3,3.6c0.1,0.7-0.2,1.4-0.8,1.8c-8.1,5.7-13,15.1-13,25c0,16.9,13.7,30.6,30.6,30.6c9.8,0,17.7-3.8,23.3-11.4
			c0.5-0.7,1.4-0.9,2.2-0.6c5.3,2.3,10.9,2.8,18.8,2.8c10.5,0,20.7-3.8,28.6-10.6c0.4-0.4,1-0.5,1.6-0.4c0.6,0.1,1,0.5,1.3,1
			c4.1,8.8,13,14.5,22.7,14.5c13.8,0,25-11.2,25-25c0-10.4-6.3-19.6-16-23.3c-0.9-0.4-1.4-1.4-1.1-2.3c0.6-1.8,0.9-3.6,0.9-5.5
			c0-9.4-7.7-17.1-17.1-17.1c-2.3,0-4.5,0.4-6.6,1.3c-0.8,0.4-1.8,0-2.3-0.7c-8.2-12.7-22.1-20.3-37.2-20.3
			c-11.7,0-22.7,4.5-31.1,12.8c-0.4,0.4-1.1,0.6-1.7,0.5C48.5,27.6,46.8,27.5,45.2,27.5z"/>
            </g>
            <g>
                <path fill="#FFC524" d="M118.7,43.3c-30.8-21.2-42.9-4.8-42.9-4.8c-2.3-5.6-6.1-10.3-10.8-13.8c5.5-2.9,11.6-4.4,17.9-4.4
			c13.2,0,25.3,6.6,32.5,17.8L118.7,43.3z"/>
            </g>
            <g>
                <path fill="#344154" d="M30.3,74.2c-0.4,0-0.7-0.1-1.1-0.3c-6.1-4.3-10.3-11-11.4-18.4c-0.2-1,0.5-2,1.6-2.1c1-0.1,2,0.5,2.1,1.6
			c1,6.4,4.6,12.2,9.8,15.9c0.8,0.6,1,1.8,0.4,2.6C31.5,73.9,30.9,74.2,30.3,74.2z"/>
            </g>
            <g>
                <path fill="#344154" d="M68.9,43.2c-0.7,0-1.4-0.4-1.7-1.1c-3.1-7.3-9.5-12.6-17.2-14.1c-1-0.2-1.7-1.2-1.4-2.2
			c0.2-1,1.2-1.7,2.2-1.4c8.9,1.8,16.4,7.9,19.9,16.4c0.4,0.9,0,2-1,2.4C69.4,43.2,69.1,43.2,68.9,43.2z"/>
            </g>
            <g>
                <g>
                    <path fill="#FFC524" d="M47.8,105.1c-2.8,1.1-5.9,1.6-9.3,1.6c-13.8,0-25-11.2-25-25c0-4.6,1.3-9.1,3.6-12.9c2.3,3.7,5.4,7,9,9.6
				C26.1,78.4,19.7,99.5,47.8,105.1z"/>
                </g>
            </g>
        </g>
    </symbol>

    <symbol id="icon-mustard" viewBox="0 0 170 180">
        <g>
            <g>
                <g>
                    <path fill="#344154" d="M78.6,170.9H31.8c-4.4,0-8-3.6-8-8V55c0-4.4,3.6-8,8-8h46.8c4.4,0,8,3.6,8,8v107.9
				C86.6,167.3,83,170.9,78.6,170.9z M31.8,50.9c-2.3,0-4.2,1.9-4.2,4.2v107.9c0,2.3,1.9,4.2,4.2,4.2h46.8c2.3,0,4.2-1.9,4.2-4.2V55
				c0-2.3-1.9-4.2-4.2-4.2H31.8z"/>
                </g>
                <g>
                    <path fill="#FFC524" d="M77,161.3V77.7c-3-1.3-5.6-3.5-7.3-6.3c-2.7,4.5-7.8,7.6-13.6,7.6c-5.8,0-10.8-3-13.6-7.6
				c-2,3.3-5.3,5.8-9.1,6.9v83H77z"/>
                </g>
                <g>
                    <path fill="#344154" d="M77.4,50.9H33c-1.1,0-1.9-0.9-1.9-1.9v-9.9c0-3.5,2.8-6.3,6.3-6.3H73c3.5,0,6.3,2.8,6.3,6.3V49
				C79.3,50,78.5,50.9,77.4,50.9z M34.9,47h40.5v-8c0-1.4-1.1-2.5-2.5-2.5H37.4c-1.4,0-2.5,1.1-2.5,2.5V47z"/>
                </g>
                <g>
                    <path fill="#344154" d="M66.9,36.6H43.5c-0.7,0-1.3-0.3-1.6-0.9c-0.4-0.5-0.4-1.2-0.1-1.8L53.5,7.8c0.3-0.7,1-1.1,1.8-1.1
				s1.4,0.4,1.8,1.1l11.7,26.1c0.3,0.6,0.2,1.3-0.1,1.8C68.1,36.2,67.5,36.6,66.9,36.6z M46.5,32.7h17.4l-8.7-19.5L46.5,32.7z"/>
                </g>
            </g>
            <g>
                <g>
                    <path fill="#344154" d="M140.5,170.9h-35.3c-4.4,0-8-3.6-8-8V78.4c0-4.4,3.6-8,8-8h35.3c4.4,0,8,3.6,8,8v84.5
				C148.5,167.3,144.9,170.9,140.5,170.9z M105.2,74.3c-2.3,0-4.2,1.9-4.2,4.2v84.5c0,2.3,1.9,4.2,4.2,4.2h35.3
				c2.3,0,4.2-1.9,4.2-4.2V78.4c0-2.3-1.9-4.2-4.2-4.2H105.2z"/>
                </g>
                <g>
                    <g>
                        <path fill="#344154" d="M113.9,74.3c-0.6,0-1.2-0.3-1.5-0.8L106,65c-0.8-1.1-0.9-2.6-0.3-3.8c0.5-1.1,1.5-1.7,2.6-1.7h14.6
					c1.1,0,1.9,0.9,1.9,1.9s-0.9,1.9-1.9,1.9h-13.4l5.9,7.8c0.6,0.8,0.5,2-0.4,2.7C114.7,74.1,114.3,74.3,113.9,74.3z M109,62.7
					L109,62.7C109,62.7,109,62.7,109,62.7z"/>
                    </g>
                    <g>
                        <path fill="#344154" d="M131.9,74.3c-0.4,0-0.8-0.1-1.2-0.4c-0.8-0.6-1-1.8-0.4-2.7l5.9-7.8h-13.4c-1.1,0-1.9-0.9-1.9-1.9
					s0.9-1.9,1.9-1.9h14.6c1.1,0,2.1,0.6,2.6,1.7c0.6,1.2,0.5,2.7-0.3,3.8l-6.4,8.5C133,74,132.4,74.3,131.9,74.3z M137.5,63.3
					L137.5,63.3L137.5,63.3z M136.8,62.7C136.8,62.7,136.8,62.7,136.8,62.7L136.8,62.7z"/>
                    </g>
                </g>
                <g>
                    <path fill="#344154" d="M131.1,63.3c-0.8,0-1.5-0.5-1.8-1.3L123,45c0,0,0-0.1-0.1-0.1l0,0c-0.1,0-0.1,0-0.1,0.1l-6.3,17.1
				c-0.4,1-1.5,1.5-2.5,1.1c-1-0.4-1.5-1.5-1.1-2.5l6.3-17.1c0.6-1.6,2-2.6,3.7-2.6c0,0,0,0,0,0c1.7,0,3.1,1,3.7,2.6l6.3,17.1
				c0.4,1-0.1,2.1-1.1,2.5C131.5,63.3,131.3,63.3,131.1,63.3z"/>
                </g>
                <g>
                    <path fill="#344154" d="M122.9,137.8c-5.6,0-10.8-2.7-14-7.3H97.2v-19.6h11.6c3.2-4.6,8.4-7.3,14-7.3s10.8,2.7,14,7.3h11.6v19.6
				h-11.6C133.7,135.1,128.5,137.8,122.9,137.8z M101.1,126.6h9.9l0.6,0.9c2.4,4,6.7,6.4,11.3,6.4c4.7,0,8.9-2.4,11.3-6.4l0.6-0.9
				h9.9v-11.9h-9.9l-0.6-0.9c-2.4-4-6.7-6.4-11.3-6.4c-4.7,0-8.9,2.4-11.3,6.4l-0.6,0.9h-9.9V126.6z"/>
                </g>
            </g>
        </g>
    </symbol>

    <symbol id="icon-frappe" viewBox="0 0 170 180">
        <g>
            <g>
                <path fill="#FFC524" d="M51.4,118.9c0,0,12.6-13,29.8-4.1c17.2,8.9,30,3.5,34.3-1.9l-6.4,45H57L51.4,118.9z"/>
            </g>
            <g>
                <path fill="#344154" d="M113.2,165.4c-1,0-1.8-0.8-1.8-1.8c0-2.1-1.7-3.9-3.9-3.9H58.6c-2.1,0-3.9,1.7-3.9,3.9
			c0,1-0.8,1.8-1.8,1.8s-1.8-0.8-1.8-1.8c0-4.1,3.4-7.5,7.5-7.5h48.9c4.1,0,7.5,3.4,7.5,7.5C115,164.6,114.2,165.4,113.2,165.4z"/>
            </g>
            <g>
                <path fill="#344154" d="M119.2,171.8H45.8c-1,0-1.8-0.8-1.8-1.8s0.8-1.8,1.8-1.8h73.4c1,0,1.8,0.8,1.8,1.8
			S120.2,171.8,119.2,171.8z"/>
            </g>
            <g>
                <path fill="#344154" d="M128,81.8c-1,0-1.8-0.8-1.8-1.8v-5.6c0-5.1-4.1-9.3-9.2-9.3H49.2c-5.1,0-9.3,4.1-9.3,9.3V80
			c0,1-0.8,1.8-1.8,1.8S36.3,81,36.3,80v-5.6c0-7.1,5.8-12.9,12.9-12.9h67.7c7.1,0,12.9,5.8,12.9,12.9V80
			C129.8,81,129,81.8,128,81.8z"/>
            </g>
            <g>
                <path fill="#344154" d="M109.1,159.7H57c-0.9,0-1.7-0.7-1.8-1.6L43.7,77.2c-0.1-1,0.5-1.9,1.5-2c1-0.1,1.9,0.5,2,1.5l11.3,79.4h49
			l11.3-79.4c0.1-1,1.1-1.7,2-1.5c1,0.1,1.7,1.1,1.5,2l-11.5,80.9C110.8,159.1,110,159.7,109.1,159.7z"/>
            </g>
            <g>
                <path fill="#344154" d="M60.7,53.8c-0.3,0-0.6-0.1-0.8-0.2c-0.9-0.5-1.2-1.5-0.8-2.4c4.6-9.1,13.8-14.7,24-14.7
			c1,0,1.8,0.8,1.8,1.8S84.1,40,83.1,40c-8.8,0-16.7,4.9-20.7,12.8C62,53.4,61.4,53.8,60.7,53.8z"/>
            </g>
            <g>
                <path fill="#344154" d="M117.5,65.1c-1,0-1.8-0.8-1.8-1.8c0-18-14.6-32.7-32.6-32.7c-18,0-32.7,14.6-32.7,32.7
			c0,1-0.8,1.8-1.8,1.8s-1.8-0.8-1.8-1.8c0-20,16.3-36.3,36.3-36.3c20,0,36.3,16.3,36.3,36.3C119.3,64.3,118.5,65.1,117.5,65.1z"/>
            </g>
            <g>
                <path fill="#344154" d="M109.8,78.8H56.3c-1,0-1.8-0.8-1.8-1.8s0.8-1.8,1.8-1.8h53.5c1,0,1.8,0.8,1.8,1.8S110.8,78.8,109.8,78.8z"
                />
            </g>
            <g>
                <path fill="#344154" d="M100,34.3c-0.3,0-0.5-0.1-0.8-0.2c-0.9-0.4-1.3-1.5-0.8-2.4l8.4-17.2c1.7-3.4,4.9-5.7,8.7-6.1l19.3-2.2
			c1-0.1,1.9,0.6,2,1.6c0.1,1-0.6,1.9-1.6,2L115.9,12c-2.5,0.3-4.7,1.8-5.9,4.1l-8.4,17.2C101.3,33.9,100.7,34.3,100,34.3z"/>
            </g>
        </g>
    </symbol>

    <symbol id="icon-appstore" viewBox="0 0 113 36">
        <g>
            <g>
                <g>
                    <path style="fill:#A6A6A6;" d="M110.1,0H9.5C9.2,0,8.8,0,8.4,0C8.1,0,7.8,0,7.5,0c-0.7,0-1.3,0.1-2,0.2C4.9,0.3,4.2,0.5,3.6,0.8
				C3,1.1,2.5,1.5,2,2C1.5,2.5,1.1,3,0.8,3.6C0.5,4.2,0.3,4.9,0.2,5.5C0.1,6.2,0,6.9,0,7.5c0,0.3,0,0.6,0,0.9v23.1
				c0,0.3,0,0.6,0,0.9c0,0.7,0.1,1.3,0.2,2c0.1,0.7,0.3,1.3,0.6,1.9C1.1,37,1.5,37.5,2,38c0.5,0.5,1,0.9,1.6,1.2
				c0.6,0.3,1.2,0.5,1.9,0.6c0.7,0.1,1.3,0.2,2,0.2c0.3,0,0.6,0,0.9,0c0.4,0,0.7,0,1.1,0h100.6c0.4,0,0.7,0,1.1,0c0.3,0,0.6,0,0.9,0
				c0.7,0,1.3-0.1,2-0.2c0.7-0.1,1.3-0.3,1.9-0.6c0.6-0.3,1.1-0.7,1.6-1.2c0.5-0.5,0.9-1,1.2-1.6c0.3-0.6,0.5-1.2,0.6-1.9
				c0.1-0.7,0.2-1.3,0.2-2c0-0.3,0-0.6,0-0.9c0-0.4,0-0.7,0-1.1V9.5c0-0.4,0-0.7,0-1.1c0-0.3,0-0.6,0-0.9c0-0.7-0.1-1.3-0.2-2
				c-0.1-0.7-0.3-1.3-0.6-1.9c-0.6-1.2-1.6-2.2-2.8-2.8c-0.6-0.3-1.2-0.5-1.9-0.6c-0.7-0.1-1.3-0.2-2-0.2c-0.3,0-0.6,0-0.9,0
				C110.9,0,110.5,0,110.1,0L110.1,0z"/>
                    <path d="M8.4,39.1c-0.3,0-0.6,0-0.9,0c-0.6,0-1.3-0.1-1.9-0.2c-0.6-0.1-1.1-0.3-1.7-0.5c-0.5-0.3-1-0.6-1.4-1
				c-0.4-0.4-0.8-0.9-1-1.4c-0.3-0.5-0.4-1.1-0.5-1.7c-0.1-0.6-0.2-1.2-0.2-1.9c0-0.2,0-0.9,0-0.9V8.4c0,0,0-0.7,0-0.9
				c0-0.6,0.1-1.3,0.2-1.9C1.1,5.1,1.3,4.5,1.6,4c0.3-0.5,0.6-1,1-1.4C3,2.2,3.5,1.9,4,1.6c0.5-0.3,1.1-0.4,1.7-0.5
				c0.6-0.1,1.2-0.2,1.9-0.2l0.9,0h102.8l0.9,0c0.6,0,1.2,0.1,1.9,0.2c0.6,0.1,1.1,0.3,1.7,0.5c1,0.5,1.9,1.4,2.4,2.4
				c0.3,0.5,0.4,1.1,0.5,1.6c0.1,0.6,0.2,1.3,0.2,1.9c0,0.3,0,0.6,0,0.9c0,0.4,0,0.7,0,1.1v20.9c0,0.4,0,0.7,0,1.1
				c0,0.3,0,0.6,0,0.9c0,0.6-0.1,1.2-0.2,1.9c-0.1,0.6-0.3,1.1-0.5,1.7c-0.3,0.5-0.6,1-1,1.4c-0.4,0.4-0.9,0.8-1.4,1
				c-0.5,0.3-1.1,0.5-1.7,0.5c-0.6,0.1-1.2,0.2-1.9,0.2c-0.3,0-0.6,0-0.9,0l-1.1,0L8.4,39.1z"/>
                </g>
                <g id="_Group_">
                    <g id="_Group_2">
                        <g id="_Group_3">
                            <path id="_Path_" style="fill:#FFFFFF;" d="M24.8,20.3c0-1.7,0.9-3.3,2.4-4.2c-0.9-1.3-2.4-2.1-4-2.2c-1.7-0.2-3.3,1-4.2,1
						c-0.9,0-2.2-1-3.6-1c-1.9,0.1-3.6,1.1-4.5,2.7c-1.9,3.3-0.5,8.3,1.4,11c0.9,1.3,2,2.8,3.4,2.8c1.4-0.1,1.9-0.9,3.6-0.9
						c1.7,0,2.1,0.9,3.6,0.9c1.5,0,2.4-1.3,3.3-2.7c0.7-0.9,1.2-2,1.5-3.1C25.9,24,24.8,22.2,24.8,20.3z"/>
                            <path id="_Path_2" style="fill:#FFFFFF;" d="M22,12.2c0.8-1,1.2-2.2,1.1-3.5c-1.2,0.1-2.4,0.7-3.2,1.7
						c-0.8,0.9-1.2,2.1-1.1,3.4C20.1,13.8,21.2,13.2,22,12.2z"/>
                        </g>
                    </g>
                    <g>
                        <path style="fill:#FFFFFF;" d="M42.3,27.1h-4.7l-1.1,3.4h-2l4.5-12.4H41l4.5,12.4h-2L42.3,27.1z M38.1,25.6h3.8L40,20.1h-0.1
					L38.1,25.6z"/>
                        <path style="fill:#FFFFFF;" d="M55.2,26c0,2.8-1.5,4.6-3.8,4.6c-1.2,0.1-2.3-0.6-2.8-1.6h0v4.5h-1.9v-12h1.8v1.5h0
					c0.6-1,1.7-1.6,2.9-1.6C53.6,21.3,55.2,23.2,55.2,26z M53.2,26c0-1.8-0.9-3-2.4-3c-1.4,0-2.4,1.2-2.4,3c0,1.8,1,3,2.4,3
					C52.3,29,53.2,27.8,53.2,26z"/>
                        <path style="fill:#FFFFFF;" d="M65.1,26c0,2.8-1.5,4.6-3.8,4.6c-1.2,0.1-2.3-0.6-2.8-1.6h0v4.5h-1.9v-12h1.8v1.5h0
					c0.6-1,1.7-1.6,2.9-1.6C63.6,21.3,65.1,23.2,65.1,26z M63.2,26c0-1.8-0.9-3-2.4-3c-1.4,0-2.4,1.2-2.4,3c0,1.8,1,3,2.4,3
					C62.3,29,63.2,27.8,63.2,26L63.2,26z"/>
                        <path style="fill:#FFFFFF;" d="M71.7,27c0.1,1.2,1.3,2,3,2c1.6,0,2.7-0.8,2.7-1.9c0-1-0.7-1.5-2.3-1.9l-1.6-0.4
					c-2.3-0.6-3.3-1.6-3.3-3.3c0-2.1,1.9-3.6,4.5-3.6c2.6,0,4.4,1.5,4.5,3.6h-1.9c-0.1-1.2-1.1-2-2.6-2s-2.5,0.8-2.5,1.9
					c0,0.9,0.7,1.4,2.3,1.8l1.4,0.3c2.5,0.6,3.6,1.6,3.6,3.4c0,2.3-1.9,3.8-4.8,3.8c-2.8,0-4.6-1.4-4.7-3.7L71.7,27z"/>
                        <path style="fill:#FFFFFF;" d="M83.3,19.3v2.1h1.7v1.5h-1.7v5c0,0.8,0.3,1.1,1.1,1.1c0.2,0,0.4,0,0.6,0v1.5
					c-0.3,0.1-0.7,0.1-1,0.1c-1.8,0-2.5-0.7-2.5-2.4v-5.2h-1.3v-1.5h1.3v-2.1H83.3z"/>
                        <path style="fill:#FFFFFF;" d="M86.1,26c0-2.8,1.7-4.6,4.3-4.6c2.6,0,4.3,1.8,4.3,4.6c0,2.9-1.7,4.6-4.3,4.6
					C87.7,30.6,86.1,28.8,86.1,26z M92.8,26c0-2-0.9-3.1-2.4-3.1S88,24,88,26c0,2,0.9,3.1,2.4,3.1S92.8,27.9,92.8,26L92.8,26z"/>
                        <path style="fill:#FFFFFF;" d="M96.2,21.4H98V23h0c0.2-1,1.2-1.7,2.2-1.6c0.2,0,0.4,0,0.6,0.1v1.7c-0.3-0.1-0.6-0.1-0.8-0.1
					c-1,0-1.9,0.8-1.9,1.8c0,0.1,0,0.2,0,0.3v5.4h-1.9L96.2,21.4z"/>
                        <path style="fill:#FFFFFF;" d="M109.4,27.8c-0.3,1.6-1.9,2.8-3.9,2.8c-2.6,0-4.3-1.8-4.3-4.6c0-2.8,1.6-4.7,4.2-4.7
					c2.5,0,4.1,1.7,4.1,4.5v0.6h-6.4v0.1c-0.1,1.3,0.8,2.4,2.1,2.6c0.1,0,0.2,0,0.3,0c0.9,0.1,1.8-0.4,2.1-1.3L109.4,27.8z
					 M103.1,25.1h4.5c0.1-1.2-0.9-2.2-2.1-2.3c-0.1,0-0.1,0-0.2,0C104.1,22.8,103.1,23.8,103.1,25.1
					C103.1,25.1,103.1,25.1,103.1,25.1z"/>
                    </g>
                </g>
            </g>
            <g id="_Group_4">
                <g>
                    <path style="fill:#FFFFFF;" d="M36.7,11.3h0.8c0.5,0.1,1-0.3,1.1-0.9c0,0,0-0.1,0-0.1c0-0.6-0.4-0.9-1.1-0.9
				c-0.6-0.1-1.1,0.3-1.2,0.9c0,0,0,0,0,0h-0.9c0.1-1,0.9-1.8,2-1.8c0,0,0.1,0,0.1,0c1.2,0,2,0.7,2,1.6c0,0.7-0.4,1.2-1.1,1.4v0.1
				c0.8,0,1.4,0.7,1.3,1.4c-0.1,1.1-1.1,1.9-2.2,1.8c0,0,0,0,0,0c-1.1,0.1-2.1-0.6-2.2-1.7c0,0,0,0,0-0.1h0.9
				c0.1,0.6,0.6,0.9,1.4,0.9s1.3-0.4,1.3-1c0-0.6-0.5-1-1.3-1h-0.8V11.3z"/>
                    <path style="fill:#FFFFFF;" d="M40.8,13.4c0-0.8,0.6-1.3,1.7-1.3l1.2-0.1v-0.4c0-0.5-0.3-0.7-0.9-0.7c-0.5,0-0.8,0.2-0.9,0.5H41
				c0.1-0.8,0.8-1.3,1.8-1.3c1.1,0,1.8,0.6,1.8,1.5v3.1h-0.9v-0.6h-0.1c-0.3,0.5-0.8,0.7-1.4,0.7c-0.7,0.1-1.4-0.5-1.5-1.2
				C40.8,13.5,40.8,13.5,40.8,13.4z M43.7,13v-0.4l-1.1,0.1c-0.6,0-0.9,0.3-0.9,0.6c0,0.4,0.4,0.6,0.8,0.6
				C43.1,14.1,43.7,13.7,43.7,13C43.7,13.1,43.7,13.1,43.7,13z"/>
                    <path style="fill:#FFFFFF;" d="M47,10.9v3.8h-0.9v-4.5h3v0.7L47,10.9z"/>
                    <path style="fill:#FFFFFF;" d="M54.4,12.4c0,1.4-0.7,2.3-1.9,2.3c-0.6,0-1.1-0.3-1.4-0.8h-0.1v2.2h-0.9v-6h0.9v0.7h0.1
				c0.3-0.5,0.8-0.8,1.4-0.8C53.7,10.1,54.4,11,54.4,12.4z M53.5,12.4c0-1-0.5-1.5-1.2-1.5c-0.7,0-1.2,0.6-1.2,1.5
				c0,0.9,0.5,1.5,1.2,1.5C53.1,14,53.5,13.4,53.5,12.4z"/>
                    <path style="fill:#FFFFFF;" d="M55.6,16.3v-0.8c0.1,0,0.2,0,0.3,0c0.4,0,0.7-0.2,0.8-0.6l0.1-0.2l-1.6-4.5h1l1.1,3.6h0.1l1.1-3.6
				h0.9l-1.7,4.7c-0.4,1.1-0.8,1.4-1.7,1.4C55.9,16.3,55.7,16.3,55.6,16.3z"/>
                    <path style="fill:#FFFFFF;" d="M60.1,13.4H61c0.1,0.4,0.5,0.6,1,0.6c0.6,0,1-0.3,1-0.7c0-0.4-0.3-0.6-1-0.6h-0.7V12h0.7
				c0.5,0,0.8-0.2,0.8-0.6c0-0.3-0.3-0.6-0.8-0.6c-0.5,0-0.9,0.2-0.9,0.6h-0.9c0.1-0.8,0.9-1.4,1.8-1.3c1.1,0,1.7,0.5,1.7,1.2
				c0,0.4-0.3,0.8-0.7,0.9v0.1c0.5,0.1,0.9,0.5,0.9,1c0,0.9-0.7,1.4-1.8,1.4C61,14.8,60.2,14.3,60.1,13.4z"/>
                    <path style="fill:#FFFFFF;" d="M65.1,14.7v-4.5h0.9v3.1H66l2.1-3.1H69v4.5h-0.9v-3.1H68l-2.1,3.1L65.1,14.7z"/>
                    <path style="fill:#FFFFFF;" d="M73.8,10.9h-1.4v3.8h-0.9v-3.8h-1.4v-0.7h3.7V10.9z"/>
                    <path style="fill:#FFFFFF;" d="M78.6,13.5c-0.2,0.8-1.1,1.4-2,1.3c-1.1,0-2.1-0.9-2.1-2c0-0.1,0-0.2,0-0.3
				c-0.2-1.1,0.6-2.2,1.8-2.3c0.1,0,0.2,0,0.3,0c1.3,0,2,0.9,2,2.3v0.3h-3.2v0c-0.1,0.7,0.4,1.2,1.1,1.3c0,0,0.1,0,0.1,0
				c0.4,0.1,0.9-0.2,1.1-0.5L78.6,13.5z M75.5,12h2.3c0-0.6-0.4-1.1-1-1.2c0,0-0.1,0-0.1,0C76,10.9,75.5,11.4,75.5,12
				C75.5,12,75.5,12,75.5,12L75.5,12z"/>
                    <path style="fill:#FFFFFF;" d="M82.4,10.2h2c0.9,0,1.4,0.4,1.4,1.1c0,0.5-0.3,0.9-0.8,1v0.1c0.5,0,1,0.5,1,1
				c0,0.8-0.6,1.3-1.6,1.3h-2.1V10.2z M83.3,10.9V12h0.9c0.5,0,0.8-0.2,0.8-0.6c0-0.4-0.2-0.6-0.7-0.6L83.3,10.9z M83.3,12.7V14h1.1
				c0.5,0,0.8-0.2,0.8-0.7c0-0.5-0.3-0.7-0.9-0.7L83.3,12.7z"/>
                </g>
            </g>
        </g>
    </symbol>

    <symbol id="icon-googleplay" viewBox="0 0 120 36">
        <g>
            <g>
                <path d="M117,36H4.5C2,36,0,34,0,31.5v-27C0,2,2,0,4.5,0H117c2.5,0,4.5,2,4.5,4.5v27C121.5,34,119.5,36,117,36z"/>
            </g>
            <g>
                <g>
                    <path style="fill:#A6A6A6;" d="M117,0.7c2.1,0,3.8,1.7,3.8,3.8v27c0,2.1-1.7,3.8-3.8,3.8H4.5c-2.1,0-3.8-1.7-3.8-3.8v-27
				c0-2.1,1.7-3.8,3.8-3.8L117,0.7 M117,0H4.5C2,0,0,2,0,4.5v27C0,34,2,36,4.5,36H117c2.5,0,4.5-2,4.5-4.5v-27
				C121.5,2,119.5,0,117,0L117,0z"/>
                </g>
            </g>
            <path style="fill:#FFFFFF;" d="M61.3,19.6c-2.1,0-3.8,1.6-3.8,3.8s1.7,3.8,3.8,3.8s3.8-1.6,3.8-3.8C65.2,21.2,63.4,19.6,61.3,19.6z
		 M61.3,25.7c-1.2,0-2.2-1-2.2-2.3c0-1.4,1-2.3,2.2-2.3s2.2,0.9,2.2,2.3C63.5,24.8,62.5,25.7,61.3,25.7z M52.9,19.6
		c-2.1,0-3.8,1.6-3.8,3.8s1.7,3.8,3.8,3.8s3.8-1.6,3.8-3.8C56.8,21.2,55.1,19.6,52.9,19.6z M52.9,25.7c-1.2,0-2.2-1-2.2-2.3
		c0-1.4,1-2.3,2.2-2.3s2.2,0.9,2.2,2.3C55.1,24.8,54.1,25.7,52.9,25.7z M43,20.8v1.6h3.9c-0.1,0.9-0.4,1.6-0.9,2
		c-0.6,0.6-1.4,1.2-3,1.2c-2.4,0-4.3-1.9-4.3-4.3S40.6,17,43,17c1.3,0,2.2,0.5,2.9,1.2L47,17c-1-0.9-2.3-1.6-4.1-1.6
		c-3.3,0-6,2.7-6,5.9c0,3.3,2.8,5.9,6,5.9c1.8,0,3.1-0.6,4.1-1.7c1.1-1.1,1.4-2.6,1.4-3.8c0-0.4,0-0.7-0.1-1H43V20.8z M83.7,22
		c-0.3-0.9-1.3-2.4-3.3-2.4s-3.6,1.6-3.6,3.8c0,2.1,1.6,3.8,3.8,3.8c1.8,0,2.8-1.1,3.2-1.7l-1.3-0.9c-0.4,0.6-1,1.1-1.9,1.1
		s-1.5-0.4-1.9-1.2l5.1-2.1L83.7,22z M78.5,23.3c0-1.5,1.1-2.2,2-2.2c0.7,0,1.2,0.3,1.4,0.8L78.5,23.3z M74.4,27H76V15.7h-1.7
		L74.4,27L74.4,27z M71.6,20.4L71.6,20.4c-0.4-0.4-1.2-0.9-2.1-0.9c-1.9,0-3.7,1.7-3.7,3.8s1.8,3.8,3.7,3.8c0.9,0,1.6-0.4,2-0.9h0.1
		v0.6c0,1.5-0.8,2.2-2,2.2c-1,0-1.7-0.7-1.9-1.4l-1.5,0.6c0.4,1,1.5,2.3,3.4,2.3c2,0,3.6-1.2,3.6-4v-6.9h-1.6V20.4z M69.7,25.7
		c-1.2,0-2.1-1-2.1-2.3s1-2.3,2.1-2.3s2,1,2,2.3C71.7,24.8,70.8,25.7,69.7,25.7z M91.6,15.7h-4V27h1.7v-4.3h2.3
		c1.9,0,3.7-1.3,3.7-3.5S93.5,15.7,91.6,15.7z M91.7,21.2h-2.4v-3.9h2.4c1.3,0,2,1,2,1.9C93.6,20.1,92.9,21.2,91.7,21.2z M102,19.6
		c-1.2,0-2.5,0.5-3,1.7l1.5,0.6c0.3-0.6,0.9-0.8,1.5-0.8c0.9,0,1.8,0.5,1.8,1.4v0.1c-0.3-0.2-1-0.4-1.8-0.4c-1.6,0-3.2,0.9-3.2,2.5
		c0,1.5,1.3,2.5,2.8,2.5c1.1,0,1.8-0.5,2.1-1.1h0.1V27h1.6v-4.3C105.5,20.7,104,19.6,102,19.6z M101.8,25.7c-0.6,0-1.3-0.3-1.3-1
		c0-0.9,1-1.2,1.8-1.2c0.7,0,1.1,0.2,1.5,0.4C103.7,25,102.8,25.7,101.8,25.7z M111.4,19.8l-1.9,4.9h-0.1l-2-4.9h-1.8l3,6.8
		l-1.7,3.8h1.8l4.6-10.6C113.3,19.8,111.4,19.8,111.4,19.8z M96.2,27h1.7V15.7h-1.7V27z"/>
            <g>

                <linearGradient id="SVGID_1_" gradientUnits="userSpaceOnUse" x1="19.6904" y1="-134.0904" x2="4.5863" y2="-118.9863" gradientTransform="matrix(1 0 0 1 0 142)">
                    <stop  offset="0" style="stop-color:#00A0FF"/>
                    <stop  offset="6.574450e-03" style="stop-color:#00A1FF"/>
                    <stop  offset="0.2601" style="stop-color:#00BEFF"/>
                    <stop  offset="0.5122" style="stop-color:#00D2FF"/>
                    <stop  offset="0.7604" style="stop-color:#00DFFF"/>
                    <stop  offset="1" style="stop-color:#00E3FF"/>
                </linearGradient>
                <path style="fill:#FFFFFF;" d="M9.4,6.8C9.1,7.1,9,7.5,9,8v20c0,0.6,0.2,1,0.4,1.3l0.1,0.1l11.2-11.1V18v-0.1L9.4,6.8
			L9.4,6.8z"/>

                <linearGradient id="SVGID_2_" gradientUnits="userSpaceOnUse" x1="30.4507" y1="-123.95" x2="8.6736" y2="-123.95" gradientTransform="matrix(1 0 0 1 0 142)">
                    <stop  offset="0" style="stop-color:#FFE000"/>
                    <stop  offset="0.4087" style="stop-color:#FFBD00"/>
                    <stop  offset="0.7754" style="stop-color:#FFA500"/>
                    <stop  offset="1" style="stop-color:#FF9C00"/>
                </linearGradient>
                <path style="fill:#FFFFFF;" d="M24.3,21.9l-3.7-3.7V18v-0.1l3.7-3.7h0.1l4.4,2.5c1.3,0.7,1.3,1.9,0,2.6L24.3,21.9
			L24.3,21.9z"/>

                <linearGradient id="SVGID_3_" gradientUnits="userSpaceOnUse" x1="22.3388" y1="-121.9388" x2="1.8564" y2="-101.4565" gradientTransform="matrix(1 0 0 1 0 142)">
                    <stop  offset="0" style="stop-color:#FF3A44"/>
                    <stop  offset="1" style="stop-color:#C31162"/>
                </linearGradient>
                <path style="fill:#FFFFFF;" d="M24.4,21.8L20.6,18L9.4,29.2c0.4,0.4,1.1,0.5,1.9,0.1L24.4,21.8"/>

                <linearGradient id="SVGID_4_" gradientUnits="userSpaceOnUse" x1="6.5631" y1="-141.837" x2="15.7093" y2="-132.6907" gradientTransform="matrix(1 0 0 1 0 142)">
                    <stop  offset="0" style="stop-color:#32A071"/>
                    <stop  offset="6.850000e-02" style="stop-color:#2DA771"/>
                    <stop  offset="0.4762" style="stop-color:#15CF74"/>
                    <stop  offset="0.8009" style="stop-color:#06E775"/>
                    <stop  offset="1" style="stop-color:#00F076"/>
                </linearGradient>
                <path style="fill:#FFFFFF;" d="M24.4,14.2L11.3,6.7c-0.8-0.4-1.5-0.4-1.9,0.1L20.6,18L24.4,14.2z"/>
                <g>
                    <path style="opacity:0.2;enable-background:new    ;" d="M24.3,21.7l-13.1,7.4c-0.7,0.4-1.4,0.4-1.8,0l0,0l-0.1,0.1l0,0l0.1,0.1
				l0,0c0.4,0.4,1.1,0.4,1.8,0L24.3,21.7L24.3,21.7z"/>
                    <path style="opacity:0.12;enable-background:new    ;" d="M9.4,29.1C9.1,28.8,9,28.4,9,27.8V28c0,0.6,0.2,1,0.4,1.3V29.1
				L9.4,29.1z"/>
                </g>
                <path style="opacity:0.12;enable-background:new    ;" d="M28.8,19.2l-4.5,2.5l0.1,0.1l4.4-2.5c0.6-0.4,0.9-0.8,0.9-1.3l0,0
			C29.7,18.4,29.4,18.8,28.8,19.2z"/>
                <path style="opacity:0.25;fill:#FFFFFF;enable-background:new    ;" d="M11.3,6.9l17.6,10c0.6,0.3,0.9,0.7,0.9,1.2l0,0
			c0-0.5-0.3-0.9-0.9-1.3L11.3,6.9C10,6,9,6.6,9,8v0.1C9,6.7,10,6.1,11.3,6.9z"/>
            </g>
        </g>
        <g>
            <path style="fill:#FFFFFF;stroke:#FFFFFF;stroke-width:0.18;stroke-miterlimit:10;" d="M37.9,12.8h-0.7V11h0.5
		c0.5-0.4,0.7-1.1,0.7-2.1V6.3H42V11h0.6v1.8H42v-1.1h-4.1V12.8z M39.1,9c0,0.9-0.2,1.5-0.5,2.1h2.7V7h-2.2V9z"/>
            <path style="fill:#FFFFFF;stroke:#FFFFFF;stroke-width:0.18;stroke-miterlimit:10;" d="M48.1,11c-0.5,0.5-1.2,0.8-2,0.8
		s-1.4-0.3-2-0.8c-0.5-0.5-0.8-1.2-0.8-2s0.3-1.5,0.8-2s1.2-0.8,2-0.8s1.4,0.3,2,0.8c0.5,0.5,0.8,1.2,0.8,2
		C48.9,9.8,48.6,10.5,48.1,11z M44.6,10.6c0.4,0.4,0.9,0.6,1.5,0.6s1.1-0.2,1.5-0.6c0.4-0.4,0.6-0.9,0.6-1.5S48,7.9,47.6,7.5
		s-0.9-0.6-1.5-0.6S45,7.1,44.6,7.5C44.2,7.9,44,8.4,44,9S44.2,10.1,44.6,10.6z"/>
            <path style="fill:#FFFFFF;stroke:#FFFFFF;stroke-width:0.18;stroke-miterlimit:10;" d="M52.4,11.8c-0.8,0-1.5-0.3-2-0.8
		s-0.8-1.2-0.8-2s0.3-1.5,0.8-2s1.2-0.8,2-0.8s1.5,0.3,2,0.9l-0.5,0.5c-0.4-0.5-0.9-0.7-1.5-0.7s-1.1,0.2-1.5,0.6s-0.6,0.9-0.6,1.6
		c0,0.6,0.2,1.2,0.6,1.6c0.4,0.4,0.9,0.6,1.5,0.6s1.2-0.3,1.7-0.8l0.5,0.5c-0.2,0.3-0.6,0.5-0.9,0.7C53.2,11.7,52.8,11.8,52.4,11.8z
		"/>
            <path style="fill:#FFFFFF;stroke:#FFFFFF;stroke-width:0.18;stroke-miterlimit:10;" d="M57.3,11.7h-0.7V7h-1.5V6.3h3.7V7h-1.5V11.7
		z"/>
            <path style="fill:#FFFFFF;stroke:#FFFFFF;stroke-width:0.18;stroke-miterlimit:10;" d="M63.6,6.3l-2,4.6c-0.3,0.6-0.7,1-1.3,1
		c-0.2,0-0.3,0-0.5-0.1l0.2-0.6c0.1,0.1,0.2,0.1,0.4,0.1s0.3,0,0.4-0.1c0.1-0.1,0.2-0.2,0.2-0.3l0.2-0.4l-1.8-4h0.8l1.3,3.1l0,0
		l1.3-3.1h0.8V6.3z"/>
            <path style="fill:#FFFFFF;stroke:#FFFFFF;stroke-width:0.18;stroke-miterlimit:10;" d="M64.4,11.7V6.3h3.9v5.4h-0.7V7h-2.5v4.7
		H64.4z"/>
            <path style="fill:#FFFFFF;stroke:#FFFFFF;stroke-width:0.18;stroke-miterlimit:10;" d="M69.5,11.7V6.3h0.7v2.3h2.7V6.3h0.7v5.4
		h-0.7V9.3h-2.7v2.4C70.2,11.7,69.5,11.7,69.5,11.7z"/>
            <path style="fill:#FFFFFF;stroke:#FFFFFF;stroke-width:0.18;stroke-miterlimit:10;" d="M79.3,11c-0.5,0.5-1.2,0.8-2,0.8
		s-1.4-0.3-2-0.8c-0.5-0.5-0.8-1.2-0.8-2s0.3-1.5,0.8-2s1.2-0.8,2-0.8s1.4,0.3,2,0.8C79.8,7.5,80,8.2,80,9S79.8,10.5,79.3,11z
		 M75.8,10.6c0.4,0.4,0.9,0.6,1.5,0.6s1.1-0.2,1.5-0.6c0.4-0.4,0.6-0.9,0.6-1.5S79.2,8,78.8,7.6C78.4,7.2,77.9,7,77.3,7
		s-1.1,0.2-1.5,0.6c-0.4,0.4-0.6,0.9-0.6,1.5S75.4,10.1,75.8,10.6z"/>
            <path style="fill:#FFFFFF;stroke:#FFFFFF;stroke-width:0.18;stroke-miterlimit:10;" d="M82.9,11.7V6.3h2c0.4,0,0.8,0.1,1.1,0.4
		c0.3,0.3,0.5,0.6,0.5,1.1c0,0.3-0.1,0.5-0.2,0.7S86,8.8,85.8,8.9l0,0c0.3,0.1,0.5,0.2,0.7,0.5c0.2,0.2,0.3,0.5,0.3,0.8
		c0,0.4-0.2,0.8-0.5,1.1s-0.7,0.4-1.2,0.4H82.9z M83.6,8.6h1.3c0.3,0,0.5-0.1,0.6-0.3c0.2-0.2,0.2-0.4,0.2-0.6s-0.1-0.4-0.2-0.6
		C85.3,7,85.1,7,84.9,7h-1.3V8.6z M83.6,11H85c0.3,0,0.5-0.1,0.6-0.3c0.2-0.2,0.2-0.4,0.2-0.6c0-0.2-0.1-0.4-0.3-0.6
		c-0.2-0.2-0.4-0.3-0.7-0.3h-1.4V11H83.6z"/>
        </g>
    </symbol>

    <symbol id="icon-inst" viewBox="0 0 22 22">
        <g>
            <path d="M16,0H6C2.7,0,0,2.7,0,6V16c0,3.3,2.7,6,6,6H16c3.3,0,6-2.7,6-6V6C22,2.7,19.3,0,16,0L16,0z M20.7,16
		c0,2.6-2.1,4.7-4.7,4.7H6c-2.6,0-4.7-2.1-4.7-4.7V6c0-2.6,2.1-4.7,4.7-4.7H16c2.6,0,4.7,2.1,4.7,4.7V16z M20.7,16"/>
            <path d="M11,5c-3.3,0-6,2.7-6,6c0,3.3,2.7,6,6,6c3.3,0,6-2.7,6-6C17,7.7,14.3,5,11,5L11,5z M11,15.7c-2.6,0-4.7-2.1-4.7-4.7
		c0-2.6,2.1-4.7,4.7-4.7c2.6,0,4.7,2.1,4.7,4.7C15.7,13.6,13.6,15.7,11,15.7L11,15.7z M11,15.7"/>
            <path d="M17.2,2.8c-1,0-1.8,0.8-1.8,1.8c0,1,0.8,1.8,1.8,1.8c1,0,1.8-0.8,1.8-1.8C18.9,3.6,18.1,2.8,17.2,2.8L17.2,2.8z M17.2,5.1
		c-0.3,0-0.5-0.2-0.5-0.5c0-0.3,0.2-0.5,0.5-0.5c0.3,0,0.5,0.2,0.5,0.5C17.6,4.9,17.4,5.1,17.2,5.1L17.2,5.1z M17.2,5.1"/>
        </g>
    </symbol>


    <symbol id="icon-vk" viewBox="0 0 38 22">
        <path d="M19.4,22c-2.7,0-5-0.6-7-1.7c-2-1.1-3.6-2.7-5.3-5C4.7,12,2.6,8.3,0.2,3.1c-0.3-0.7-0.3-1.3,0-1.7C0.5,1,1,0.7,1.8,0.7
				c1.7,0,3.4,0,5.2,0c0.9,0,1.7,0.5,2.1,1.5c1,2.4,2.1,4.5,3.5,6.4c0.3,0.5,0.7,1,1.2,1.3c0.1,0.1,0.2,0.1,0.2,0.1
				c0,0,0.1-0.1,0.1-0.2c0.1-0.3,0.2-0.7,0.3-1.2c0.2-1.8,0.1-3.3-0.1-4.6c-0.1-0.7-0.5-1.1-1.2-1.3c-0.2,0-0.7-0.1-0.9-0.6
				c-0.2-0.5,0.2-0.9,0.3-1c0.5-0.6,1.1-1,2.1-1h6.1l0.1,0c1.5,0.3,1.7,1.2,1.8,2.1l0,0.1l0,6.7l0,0c0,0.3,0.2,0.9,0.4,1
				c0.1,0,0.2-0.1,0.4-0.3l0.1-0.1C25,8,26,6.1,26.8,4.5c0.4-0.8,0.7-1.5,1.1-2.5c0.4-0.9,1-1.4,2-1.4l5.8,0c0.2,0,0.4,0,0.6,0
				c0.4,0.1,1.1,0.2,1.4,0.8c0.3,0.5,0.2,1.2,0.1,1.6c-0.5,1.5-1.4,2.8-2.3,4l-0.1,0.1c-0.5,0.6-0.9,1.3-1.4,1.9
				c-0.5,0.7-1.1,1.4-1.6,2.1c-0.7,0.9-0.7,1.2,0.2,2l0,0c0.3,0.3,0.6,0.6,1,0.9c0.9,0.9,1.8,1.7,2.7,2.7c0.5,0.5,1,1.2,1.4,2
				c0.4,0.7,0.4,1.5,0,2.2c-0.3,0.5-0.8,0.8-1.4,0.9l0,0l-5.3,0c-1.4,0.1-2.8-0.4-3.9-1.6c-0.5-0.5-1-1.1-1.5-1.6
				c-0.2-0.2-0.4-0.5-0.7-0.7c-0.2-0.2-0.5-0.5-0.8-0.7c-0.2-0.1-0.4-0.2-0.5-0.2c-0.1,0-0.2,0.1-0.3,0.3c-0.3,0.6-0.4,1.3-0.5,2.2
				c-0.1,1.6-0.7,2.2-2.3,2.3C20,22,19.7,22,19.4,22z M1.3,2.1c0,0,0,0.2,0.1,0.4c2.3,5.1,4.3,8.7,6.7,11.9c1.6,2.1,3.1,3.6,4.9,4.6
				c2.1,1.2,4.4,1.7,7.2,1.5c0.9,0,1-0.1,1.1-1c0-0.9,0.2-1.9,0.6-2.8c0.4-0.7,0.8-0.9,1.2-1c0.3-0.1,0.9-0.1,1.5,0.3
				c0.4,0.3,0.8,0.6,1.1,1c0.2,0.3,0.5,0.5,0.7,0.8c0.5,0.5,0.9,1.1,1.4,1.6c0.9,0.9,1.8,1.3,2.8,1.2l0.1,0l5.3,0
				c0.1,0,0.2-0.1,0.3-0.2c0.1-0.2,0.1-0.5,0-0.9c-0.3-0.6-0.8-1.2-1.2-1.7c-0.8-0.9-1.7-1.8-2.5-2.6c-0.3-0.3-0.7-0.6-1-0.9
				c-1.3-1.3-1.4-2.3-0.4-3.8c0.5-0.7,1.1-1.4,1.6-2.1c0.5-0.6,0.9-1.2,1.4-1.8l0.1-0.1c0.9-1.2,1.7-2.3,2.1-3.7
				c0.1-0.4,0.1-0.5,0.1-0.5l0,0c0,0-0.1-0.1-0.5-0.2c-0.1,0-0.3,0-0.4,0l-5.8,0c-0.4,0-0.6,0.1-0.7,0.5c-0.4,1-0.7,1.8-1.1,2.6
				c-0.8,1.7-1.9,3.7-3.5,5.4l-0.1,0.1c-0.3,0.3-0.9,1-1.8,0.7l0,0c-1-0.4-1.3-1.7-1.3-2.3l0-6.6c-0.1-0.7-0.2-0.8-0.7-0.9h-5.9
				c-0.3,0-0.6,0.1-0.7,0.2c0.9,0.4,1.5,1.1,1.7,2.2c0.2,1.5,0.3,3.1,0.1,5c-0.1,0.6-0.2,1.1-0.4,1.6c-0.2,0.5-0.6,0.9-1,1
				c-0.4,0.1-0.9,0-1.4-0.3c-0.7-0.5-1.1-1.1-1.5-1.6c-1.4-2-2.6-4.2-3.6-6.7C7.6,2.2,7.3,2.1,7,2.1c-1.8,0-3.5,0-5.2,0
				C1.5,2.1,1.4,2.1,1.3,2.1z"/>
    </symbol>


    <symbol id="logo-presto" viewBox="0 0 191 97">
        <g>
            <path style="fill-rule:evenodd;clip-rule:evenodd;fill:#ED1C24;" d="M191,48.9c-0.2-5.1-1.6-9-4.1-11.8c-2.1-2.2-4.9-3.5-8-3.7
		c0.2-1.6-0.1-3.2-1.1-4.6c-1.9-2.7-5.4-3.8-11.8-3.8c-0.8,0-1.4,0-1.7,0c-5.6,0.1-10,0.1-14.5,0.1v-4.1c0.7,0.8,1.7,1,2.7,1
		c2.2,0,3.3-2,3.3-4.5c0-2.3-1-4.6-3.3-4.6c-1.7,0-2.4,1-2.6,1.3v-1.1h-2.4v12c-2.3,0-4.7,0-7.4,0c-3.5,0-8-0.1-13.7-0.1
		c-4.9,0-9.9,0-14.2,0c-3.2,0-6,0-8.1,0c-8,0-12.3,1.5-14.2,4.8c-0.9,1.7-1,3.7-0.3,5.4c-1.5,0.5-2.8,1.4-4.1,2.5
		c0,0-0.1,0.1-0.1,0.1c-1,1-2,2.1-2.9,3.3c-0.4-0.7-0.8-1.3-1.3-1.9c-0.2-0.2-0.4-0.5-0.6-0.7c0.9-0.4,1.9-0.9,3-1.8
		c3.8-3.1,5.9-7.5,5.9-12.7c0-4.6-0.4-9.8-4.9-14.5C79.5,4.9,75,2.9,63.9,0.8C61.4,0.3,56.3,0,53.7,0c-1.8,0-6.1,0-8.8,0.4
		c-2.3,0.3-4.2,0.7-5.7,1C33.5,2.8,27.8,4.9,22,7.9c-5.8,3-10.6,6.2-14.1,9.6c-2.3,2.2-3.3,4-4.2,5.5c-0.2,0.3-0.4,0.6-0.6,1
		C1.2,27.3,0,31.2,0,34.5c0,3.1,0,7.9,3.5,12c4,4.7,10,7.1,17.9,7.1c0.7,0,1.3,0,1.9,0l-4.8,14.2c0,0.1-0.1,0.2-0.1,0.4
		c-0.3,1-0.6,2.2-1,3.7c-0.5,2-0.8,3.6-0.8,5c0,3.3,1.4,5.5,2.5,6.7c2.2,2.3,4.5,2.8,6.1,2.8c4.6,0,8-2.7,8.7-7
		c0-0.3,0.1-0.6,0.1-0.9c0-1-0.2-2-0.6-3.3c0-0.1,0-0.2-0.1-0.2c0-0.2,0.6-1.8,0.6-1c0,3.3,1.4,5.4,2.6,6.6c1.8,1.8,3.7,2.4,5.2,2.5
		c-0.5,1.8-0.7,3.3-0.7,4.6c-0.1,3.2,1.1,5.2,2.1,6.4c1.6,1.9,3.7,3,6.2,3c4.3,0,7.5-2.6,8.2-6.7c0-0.3,0.1-0.5,0.1-0.8
		c0-0.9-0.1-1.9-0.5-3.1c0-0.1,0-0.2,0-0.2c0-0.1,0-0.5,0.1-1c0.1-0.5,0.2-0.9,0.3-1.2c0.1-0.3,0.6-1.7,1.3-3.9
		c1.8,1.1,4,1.6,6.4,1.6c1.3,0,2.6-0.3,4-0.8c1.5-0.5,2.9-1.4,4.2-2.5c0,0,0.1-0.1,0.1-0.1c1-0.9,1.9-2,2.8-3.2
		c0.4,0.7,0.8,1.4,1.3,2c2.3,2.8,5.5,4.3,9.3,4.4c0.1,0,0.2,0,0.3,0c4.9,0,9.5-2.7,14-8.2c0.5,1.4,1.2,2.6,2.1,3.6
		c2.3,2.7,5.5,4.2,9.3,4.3c0.1,0,0.3,0,0.3,0c2.3,0,6.1-0.7,10.2-4.1c1.1,2.2,3,3.1,3.9,3.4c1,0.3,1.9,0.5,2.8,0.5
		c1.3,0,4.3-0.4,6.3-3.4c0.9,1.5,2.2,2.3,2.8,2.7c1,0.6,2.2,0.8,3.4,0.8c2.1,0,4.1-0.9,5.6-2.5c0.6,0.7,1.2,1.3,1.9,1.7
		c1.1,0.6,2.3,1,3.6,1c2.3,0,4.5-1.1,6.2-3.1c0.5-0.7,1-1.3,1.4-2c0.2,0.2,0.4,0.5,0.6,0.7c1.3,1.3,2.7,2.3,4.4,3
		c1.4,0.6,3.2,0.7,4.5,0.7h0c3.6,0,7.1-1.1,9.9-3.2c4.4-3.2,7-9.6,8.2-13.1C190.4,59,191.2,53.9,191,48.9L191,48.9z M108.5,40.4
		L108.5,40.4C108.5,40.4,108.5,40.4,108.5,40.4c-1.3,1.7-2.6,3.8-3.8,6.3c-0.4-0.1-0.7-0.1-1.1-0.2c0,0,0-0.1,0-0.1
		c0.1-2.4-0.4-4.3-1.1-5.8c0.2,0,0.4,0,0.5,0C104.7,40.6,106.5,40.6,108.5,40.4L108.5,40.4z M33.3,26.1L33.3,26.1
		c-1.7,4.3-3.3,8.7-5,13c-0.3-0.1-0.6-0.2-0.9-0.3c-1.2-0.3-2.6-0.5-4.2-0.5c-3.5,0-6-0.6-6.9-1.7c-0.4-0.5-0.5-1.5-0.5-2
		c0,0,0.1-0.8,1.4-2.8c1.2-1.8,2.9-3.6,5.1-5.4c3-2.5,6.7-4.8,10.9-6.7c1.2-0.6,2.5-1.1,3.7-1.5C34.4,23.7,33.6,25.4,33.3,26.1
		L33.3,26.1z M172.9,15.2L172.9,15.2v2h-1.2c-0.9,0-1.3-0.2-1.3-1c0-0.8,0.5-0.9,1.4-0.9H172.9L172.9,15.2z M167.6,21.9
		c0.3,0.1,0.5,0.2,0.9,0.2c1.8,0,2.3-1.2,2.8-2.3c0.3-0.6,0.6-1,1.6-1v3.1h2.4v-8.7h-3.9c-2.6,0-3.7,1.1-3.7,2.7
		c0,1.2,0.6,1.8,2,2.2c-0.5,0.2-0.8,0.5-0.9,0.7c-0.4,0.6-0.4,1.1-1,1.2c-0.1,0-0.2,0-0.3,0V21.9L167.6,21.9z M160.2,17.8v-4.5h-2.4
		v8.7h2.4v-1.2l2.9-3.2v4.4h2.4v-8.7h-2.4v1.3L160.2,17.8L160.2,17.8z M149.7,17.6L149.7,17.6c0-2.1,1.2-2.4,1.7-2.4
		c0.6,0,1.7,0.5,1.7,2.4c0,1.9-1,2.4-1.7,2.4C150.9,20,149.7,19.7,149.7,17.6L149.7,17.6z M139.9,16.5L139.9,16.5
		c0-1.5,1-1.7,1.5-1.7c1.3,0,1.4,1.2,1.4,1.7H139.9L139.9,16.5z M144.1,19.1c-0.7,0.5-1.3,0.9-2.2,0.9c-1,0-2-0.7-2-1.9h5.5
		c0.1-3.8-2.1-5.1-4-5.1c-2,0-4.2,1.4-4.2,4.5c0,2.9,2,4.6,4.4,4.6c1.7,0,2.7-0.6,3.7-1.7L144.1,19.1L144.1,19.1z M129.8,19.9v-6.7
		h-2.4v8.7h6.5v2.5h2.2v-4.5h-1v-6.7h-2.4v6.7H129.8L129.8,19.9z M119.3,19.9v-6.7h-2.4v8.7h6.5v2.5h2.2v-4.5h-1v-6.7h-2.4v6.7
		H119.3L119.3,19.9z M108.8,17.8v-4.5h-2.4v8.7h2.4v-1.2l2.9-3.2v4.4h2.4v-8.7h-2.4v1.3L108.8,17.8L108.8,17.8z M96.2,11.4h4.6v10.5
		h2.8V9.3H93.5v12.6h2.8V11.4L96.2,11.4z"/>
            <path style="fill-rule:evenodd;clip-rule:evenodd;fill:#FFFFFF;" d="M181.3,51.6L181.3,51.6c-0.1,0.7-0.1,1.3-0.2,1.9
		c0,0.1-0.8,4.4-0.8,4.4c-0.6,2.6-1.2,5.2-2.5,7.6c-2.1,3.8-4.7,5.5-6.6,5.5c-1.4,0.1-2.4-0.5-3-1.7c-0.6-1.2-1-2.8-1-4.8
		c0-0.7,0-1.4,0.1-2.3c0.1-0.7,0.3-2.3,0.3-2.9c0.2-2.6,1.9-8.7,3.2-11.1c1.4-2.6,2.4-4.5,4.1-4.9c0.8-0.2,1.7,0.2,1.8,1.6
		c0,0.5,0,1,0,1.5c0.1,1,0.9,1.6,1.8,1.6c0.7,0,2.1,0,2.7-1c0.1,0.7,0.2,1.5,0.3,2.4C181.4,50,181.3,50.7,181.3,51.6L181.3,51.6z
		 M182.9,40.9c-1.4-1.4-3.2-2.1-5.4-2c-0.4,0-2.5-0.2-4.7,0.7c-0.8,0.4-1.6,0.9-2.4,1.7c-2.1,2.2-4,5.7-5.5,10.2
		c-1.6,4.6-2.3,9-2.1,13.2c0.2,3.8,1,6.5,2.7,8.3c0.7,0.8,1.6,1.3,2.5,1.6c0.5,0.3,5.1,1.1,9.1-1.8c2.5-1.8,4.8-5.9,6.3-10.5
		c1.6-4.6,2.3-9,2.1-13.2C185.4,45.4,184.5,42.6,182.9,40.9L182.9,40.9z M76.8,42.9c-1.3-1.5-3-2.3-5.2-2.4c-1.6,0-3.3,0.5-5,1.5
		c0.8-2,1.6-3.6,2.1-4.3c0.8-1,1.9-3.4,2.5-5.1c0.4-1.3-0.8-2.1-1.3-2.1c-0.9,0-1.8,0.3-2.5,0.8c-0.8,0.6-1.5,1.6-2.1,3
		c-1.9,4.1-3.1,6.8-3.5,7.9c-1.9,5-3.8,10-5.7,14.9c0,0-4.1,12.2-5,14.3l-3.1,9.5c-0.2,0.9-0.6,2.1-0.9,3.5
		c-0.4,1.4-0.6,2.5-0.6,3.4c0,1.2,0.3,2.1,0.8,2.8c0.6,0.7,1.2,1,1.9,1.1c1.7,0,2.7-0.7,3-2.2c0-0.4-0.1-0.9-0.3-1.5
		c-0.2-0.6-0.3-1.2-0.3-1.8c0-0.6,0.1-1.2,0.2-2c0.1-0.8,0.3-1.4,0.5-1.9c0,0,7.7-23.2,10-29c0.2-0.6,0.5-1.4,0.9-2.3
		c0.2-0.2,0.3-0.5,0.5-0.7c2.9-3.8,5.3-5.7,7.4-5.7c1.4,0,2.3,0.7,2.9,1.9c0.5,1.2,0.8,2.9,0.7,4.8c0,0.7-0.1,1.4-0.2,2.2
		c-0.1,0.7-0.2,1.3-0.3,1.9c0,0.1-0.5,3-1.1,4.3c0,0,0,0,0,0c-0.8,2.9-2,5.6-3.5,8.2c-1.5,2.6-2.7,3.9-3.7,3.9c-1,0-2.5-0.7-2.8-3
		c-0.1-1-0.8-1.8-1.7-1.8c-0.9,0-2.4,0.2-2.6,2.2c-0.1,0.7,0,2,0.2,2.7c0.6,2,2.1,4.3,6.1,4.3c0.6,0,1.3-0.1,2.2-0.4
		c0.8-0.3,1.7-0.8,2.5-1.5c2.3-2.1,4.3-5.4,6.2-9.8c1.9-4.5,2.9-8.8,3-13.1C79,47.5,78.3,44.7,76.8,42.9L76.8,42.9z M28.6,70.9
		c0,0,5.2-15.2,5.1-15.3c1.2-4.3,3.1-9.6,5.6-15.8c1.2-3.2,2.4-5.8,3.4-7.9c1.7-3.5,3.3-6.4,5-8.7c0.8-1.1,1.4-2.1,1.7-2.9
		c0.3-0.8,0.5-1.5,0.5-2.1c0-0.8-0.3-1.5-0.8-2c-0.5-0.5-1.1-0.7-1.7-0.7c-1,0-2,0.3-2.9,0.9c-0.9,0.6-1.6,1.7-2.3,3.2
		c-2.1,4.4-3.3,7.2-3.8,8.4c-2.1,5.4-4.1,10.7-6.1,16l-8.6,25.4c-0.3,1-0.6,2.2-1,3.7c-0.4,1.5-0.6,2.7-0.6,3.6c0,1.2,0.3,2.2,1,2.9
		c0.7,0.7,1.4,1.1,2.2,1.1c1.9,0,3-0.8,3.3-2.4c0-0.4-0.1-0.9-0.3-1.6c-0.2-0.7-0.3-1.3-0.3-1.9c0-0.6,0.1-1.3,0.2-2.1
		C28.3,72,28.4,71.4,28.6,70.9L28.6,70.9z M18.9,22.3c3.4-2.9,7.5-5.4,12.1-7.5c4.7-2.1,9.1-3.5,13.3-4.3c2.5-0.5,5.1-0.7,7.8-0.7
		c6.7,0,15,1.1,19.7,3.4c6.5,3.3,7.8,6.6,7.4,11.6c-0.3,4.2-3.9,4.8-4.4,6.9c-0.3,1.3,0.4,2.3,1.8,2.2c0.8-0.1,1.7,0.1,3.5-1.3
		c2-1.6,3.8-4.2,3.8-8.5c0-4.3-0.4-7.7-3.4-10.6C76.6,9.7,73,8,62.9,6.1c-2-0.4-6.8-0.7-9.2-0.7c-2.2,0-5.9,0.1-8.1,0.4
		c-2.1,0.3-3.9,0.6-5.2,0.9c-5.3,1.2-10.6,3.2-15.9,6c-5.4,2.7-9.6,5.6-12.8,8.7c-2.2,2.1-2.7,3.5-3.9,5.4c-1.5,2.4-2.4,5.4-2.4,7.7
		c0,3.3,0.2,6.1,2.2,8.5c2.9,3.5,7.5,5.2,13.8,5.2c2,0,3.4-0.2,4.4-0.5c1-0.3,1.5-1,1.5-2.1c0-0.8-0.4-1.4-1.2-1.6
		c-0.8-0.2-1.8-0.3-2.9-0.3c-5.4,0-9.1-1.3-11.1-3.8c-1.1-1.4-1.6-3.2-1.6-5.4c0-1.6,0.8-3.5,2.3-5.8C14.3,26.6,16.3,24.4,18.9,22.3
		L18.9,22.3z M45.9,68.4c0,0,5.1-14.2,5.1-14.2c1.2-4,3.1-8.9,5.7-14.7c1.2-3,2.4-5.5,3.4-7.4c1.7-3.3,3.3-6,5-8.1
		c0.8-1,1.4-1.9,1.8-2.7c0.3-0.8,0.5-1.4,0.5-2c0-0.8-0.3-1.4-0.8-1.8c-0.5-0.4-1.1-0.6-1.7-0.6c-1,0-2,0.3-2.9,0.9
		c-0.9,0.6-1.6,1.6-2.3,3c-2.1,4.1-3.3,6.8-3.8,7.9c-2.1,5-4.1,10-6.1,14.9c0,0-4.4,12.1-5.4,14.2l-3.3,9.5c-0.3,0.9-0.6,2.1-1,3.5
		c-0.4,1.4-0.6,2.5-0.6,3.4c0,1.2,0.3,2.1,1,2.7c0.7,0.7,1.4,1,2.2,1c1.9,0,3-0.8,3.3-2.3c0-0.4-0.1-0.9-0.3-1.5
		c-0.2-0.6-0.3-1.2-0.3-1.8c0-0.5,0.1-1.2,0.2-1.9C45.5,69.5,45.7,68.9,45.9,68.4L45.9,68.4z M163.6,46.2L163.6,46.2
		C163.6,46.2,163.6,46.2,163.6,46.2L163.6,46.2L163.6,46.2z M104.6,54.3L104.6,54.3c-0.6,3.7-2,7.5-5.7,12.9
		c-4.1,5.9-8.1,8.8-11.8,8.7c-2.2-0.1-4-0.9-5.3-2.4c-1.5-1.8-2.2-4.7-2.1-8.5c0.1-4.3,1.1-8.7,3-13.2c1.9-4.5,4-7.8,6.2-9.9
		c0.8-0.7,1.6-1.2,2.5-1.5c0.8-0.3,1.6-0.5,2.2-0.4c1.1,0,2.1,0.4,2.9,1.3c1.2,1.2,1.7,2.9,1.7,5c-0.1,4-1.2,7.4-3.5,10.3
		c-2.2,2.9-4.9,4.3-8.1,4.2c-0.7,0-1.3-0.1-2.1-0.3c-0.1,0.7-0.3,1.5-0.4,2.3c-0.1,0.8-0.2,1.6-0.2,2.3c0,2,0.2,3.6,0.7,4.9
		c0.5,1.3,1.5,1.9,2.9,1.9c2.1,0.1,4.6-1.8,7.5-5.7c2.9-3.9,4.3-6.5,5.2-10.4c0.3-1,0.6-2.4,0.8-2.8c0.4-0.9,1.4-1.1,2.2-1.1
		C104.1,52,104.8,52.8,104.6,54.3L104.6,54.3z M94.1,46.7c0-1.6-0.4-2.4-1.4-2.4c-1,0-2.3,1.3-3.7,3.9c-1.5,2.7-2.6,5.4-3.5,8.3
		c0.3,0.2,0.6,0.3,0.9,0.4c0.3,0.1,0.6,0.1,0.9,0.1c1.8,0,3.4-1.1,4.7-3.3C93.4,51.5,94.1,49.1,94.1,46.7L94.1,46.7z M173.4,32.9
		c-0.7,2-3.1,2.1-8.6,1.8c-3.2-0.2-17-0.7-32.6-0.4c-7.7,0.2-19.7,0.4-24.1,0.7c-6.5,0.5-12.5,0.2-13.6-1.6
		c-0.7-1.2,1.8-2.8,9.4-2.8c7.6,0,25.3-0.1,36,0c10.8,0.1,24.5-0.1,24.5-0.1S174.5,30.1,173.4,32.9L173.4,32.9z M157.5,41.8
		c-3.1-1.7-5.7-0.5-8.3,0.9c-0.6-0.5-1.5-1.1-2.3-1.3c-3.3-1-5.2-0.4-6.8,1.1c0.3-1,0.7-1.8,0.9-2.6c0.4-1.3-0.4-2.9-1.3-3.1
		c-1.1-0.3-2.8,0.5-3.3,2.6c-3.5,12.7-4.5,19.9-8,31.3c-0.4,1.3-1.2,4.1,0.3,4.6c1.4,0.5,2.8,0.3,3.7-2.3c2.8-8.3,6.2-21.3,7.1-24.3
		c1-3.3,5.2-4.6,6.7-2.5c0.1,0.1,0.1,0.2,0.2,0.3c1,2.1,0.3,4.9,0,7c-0.4,2.5-1.1,4.9-1.8,7.3c-1.2,4.1-2,6.2-3.6,10.8
		c-0.8,2.3-0.3,3.2,0.7,3.7c1,0.5,2.5,0,3.2-1.8c1.9-4.7,3-8.9,4.4-13.8c1-3.7,1.9-7.4,1.9-11.2c0-0.9,0-1.5-0.3-2.3
		c1.7-1,3.9-1.7,5.5,0.2c1.8,2.3,1.2,5.9,1,8.6c-0.3,3.3-1.5,6.3-2.4,9.5c-0.6,2.1-1.8,4.9-2.7,7.7c-0.6,1.7-0.2,2.9,0.6,3.4
		c0.7,0.4,1.9,0.2,2.8-0.9c2.2-2.6,2.8-6.5,3.9-10.7c1.1-4.4,2.3-9.3,2.2-13.9C161.5,46.6,160.7,43.6,157.5,41.8L157.5,41.8z
		 M127.3,54.2c-1.3-0.1-2.2,0.9-2.6,1.8c-0.2,0.4-0.5,1.7-0.9,2.7c-1.2,3-1.6,4.5-3.2,7.5c-2.3,4.2-5.3,5.7-7.4,5.7
		c-1.4,0-2.3-0.7-2.9-1.9c-0.5-1.2-0.8-2.9-0.7-4.8c0-0.7,0.1-1.4,0.2-2.2c0.1-0.7,0.2-1.3,0.3-1.9c0-0.1,0.5-3,1.1-4.3c0,0,0,0,0,0
		c0.8-2.9,2-5.6,3.5-8.2c1.5-2.6,2.7-3.8,3.7-3.9c2.8-0.3,3.1,2,3.1,2.9c0.1,1,0.9,2,1.8,2c0.9,0,2.3-0.4,2.4-2.4
		c0.1-0.7,0-2-0.5-3.2c-0.9-2-2-3.5-6.1-3.5c-0.6,0-1.3,0.1-2.2,0.4c-0.8,0.3-1.7,0.8-2.5,1.5c-2.3,2.1-4.3,5.4-6.2,9.8
		c-1.9,4.5-2.9,8.8-3,13.1c-0.1,3.8,0.6,6.6,2.1,8.4c1.3,1.5,3,2.3,5.2,2.4c3.8,0.1,8-2.6,11.7-8.6c1.9-3.1,3.5-6.3,4.3-9.9
		C129.2,55.2,128.7,54.3,127.3,54.2L127.3,54.2z"/>
        </g>
    </symbol>

    <symbol id="logo-presto-mobile" viewBox="0 0 163 163">
        <g>
            <g>
                <path fill="#fff" d="M138.2,163.3H25.1C11.2,163.3,0,152.1,0,138.2V25.1C0,11.2,11.2,0,25.1,0h113.1
			c13.9,0,25.1,11.2,25.1,25.1v113.1C163.3,152.1,152.1,163.3,138.2,163.3z"/>
            </g>
            <g>
                <g>
                    <path fill-rule="evenodd" clip-rule="evenodd" fill="#ff2a2a" d="M116.7,49.4c-0.9-3.7-4.3-8.3-5.8-9.4c-1.5-1.1-3.6-1.4-4.4,0.2
				c-9.7,21.5-33.6,69-39.1,82.5c-1.2,3-1.4,5.1-0.8,8.6c0.9,4.9,6,11.7,11.4,13c1,0.3,2.7,0.7,3.5-1.9
				c11.4-32.8,24.5-64.6,34.5-87.1C117,53.4,117.3,52.1,116.7,49.4L116.7,49.4z"/>
                    <g>
                        <path fill-rule="evenodd" clip-rule="evenodd" fill="#ff2a2a" d="M84.5,52.1c-0.8-3.7-4.1-8.4-5.5-9.6c-1.4-1.1-3.6-1.5-4.4,0.1
					c-10.2,21.3-34.9,66.1-40.7,79.4c-1.3,2.9-1.6,5-1,8.6c0.8,4.9,5.8,11.9,11.1,13.3c1,0.3,2.6,0.7,3.6-1.8
					c12.2-32.5,25.8-62,36.2-84.1C84.7,56.1,85.1,54.8,84.5,52.1L84.5,52.1z"/>
                        <path fill-rule="evenodd" clip-rule="evenodd" fill="#ff2a2a" d="M39.2,83.6c-4.7-36.9,31.2-60.1,61.4-58.8
					c27.3,1.2,36.7,20.9,30.3,37.4c-1,2.6-2.3,6.2,2.1,6.2c9.2,0,15.3-8.7,15.3-18.8c0-8.7-10.1-34.9-50.3-34.9
					C45,14.7,21.4,48.9,21.5,71c0.1,11.9,7.8,16.8,14.1,16.8C38.6,87.7,39.5,85.6,39.2,83.6L39.2,83.6z"/>
                    </g>
                </g>
            </g>
        </g>
    </symbol>


    <symbol id="icon-basket" viewBox="0 0 512 512">
        <g >
            <path d="M153,408c-28.05,0-51,22.95-51,51s22.95,51,51,51s51-22.95,51-51S181.05,408,153,408z M0,0v51h51l91.8,193.8L107.1,306
			c-2.55,7.65-5.1,17.85-5.1,25.5c0,28.05,22.95,51,51,51h306v-51H163.2c-2.55,0-5.1-2.55-5.1-5.1v-2.551l22.95-43.35h188.7
			c20.4,0,35.7-10.2,43.35-25.5L504.9,89.25c5.1-5.1,5.1-7.65,5.1-12.75c0-15.3-10.2-25.5-25.5-25.5H107.1L84.15,0H0z M408,408
			c-28.05,0-51,22.95-51,51s22.95,51,51,51s51-22.95,51-51S436.05,408,408,408z"/>
        </g>
    </symbol>


    <symbol id="icon-arrows-down" viewBox="0 0 129 129">
        <g>
            <path d="M68.3,95.3l53.9-53.9c1.1-1,1.7-2.4,1.7-3.9c0-1.5-0.5-2.9-1.6-3.9c-2.2-2.2-5.7-2.2-7.8,0l-50,50.1L14.4,33.6
		c-1-1-2.4-1.6-3.9-1.6c-1.5,0-2.9,0.6-3.9,1.6C5.5,34.7,5,36.1,5,37.5c0,1.4,0.5,2.8,1.6,3.9l53.9,53.9c1.1,1.1,2.4,1.6,3.9,1.6
		C65.9,96.9,67.3,96.3,68.3,95.3z"/>
        </g>
    </symbol>

    <symbol id="icon-arrows-right" viewBox="0 0 129 129">
        <g>
            <path d="M95.3,60.6L41.4,6.7C40.4,5.6,39,5,37.5,5c-1.5,0-2.9,0.5-3.9,1.6c-2.2,2.2-2.2,5.7,0,7.8l50.1,50l-50.1,50.1
		c-1,1-1.6,2.4-1.6,3.9c0,1.5,0.6,2.9,1.6,3.9c1.1,1.1,2.5,1.6,3.9,1.6c1.4,0,2.8-0.5,3.9-1.6l53.9-53.9c1.1-1.1,1.6-2.4,1.6-3.9
		C96.9,63,96.3,61.6,95.3,60.6z"/>
        </g>
    </symbol>

    <symbol id="icon-arrows-left" viewBox="0 0 129 129">
        <g>
            <path d="M33.5,68.3l53.9,53.9c1,1.1,2.4,1.7,3.9,1.7s2.9-0.5,3.9-1.6c2.2-2.2,2.2-5.7,0-7.8l-50.1-50l50.1-50.1
		c1-1,1.6-2.4,1.6-3.9s-0.6-2.9-1.6-3.9C94.2,5.5,92.8,5,91.3,5s-2.8,0.5-3.9,1.6L33.5,60.5c-1.1,1.1-1.6,2.4-1.6,3.9
		S32.5,67.3,33.5,68.3z"/>
        </g>
    </symbol>


    <symbol id="icon-shopping-basket" viewBox="0 0 26.4 21.8">
          <path style="clip-path:url(#SVGID_2_);" d="M21.6,21.8H4.8c-0.8,0-1.4-0.6-1.5-1.4L2.1,9.4c0-0.1,0-0.2,0.1-0.3
			C2.3,9,2.4,8.9,2.5,8.9h21.3c0.1,0,0.2,0,0.3,0.1c0.1,0.1,0.1,0.2,0.1,0.3l-1.1,11.1C23.1,21.2,22.4,21.8,21.6,21.8L21.6,21.8z
			 M3,9.7L4,20.4c0,0.4,0.3,0.7,0.7,0.7h16.9c0.4,0,0.7-0.3,0.7-0.7l1.1-10.7H3z M3,9.7"/>
                <path style="clip-path:url(#SVGID_2_);" d="M6.1,5C6,5,5.9,5,5.8,4.9c-0.1-0.2-0.1-0.4,0-0.6l5-4.2C11,0,11.2,0,11.4,0.2
			c0.1,0.2,0.1,0.4-0.1,0.6l-5,4.2C6.3,5,6.2,5,6.1,5L6.1,5z M6.1,5"/>
          <path style="clip-path:url(#SVGID_2_);" d="M20.3,5c-0.1,0-0.2,0-0.3-0.1l-5-4.2c-0.2-0.1-0.2-0.4,0-0.6C15.2,0,15.4,0,15.6,0.1
			l5,4.2c0.2,0.1,0.2,0.4,0.1,0.6C20.5,5,20.4,5,20.3,5L20.3,5z M20.3,5"/>
            <path d="M25,9.7H1.4C0.6,9.7,0,9.1,0,8.3V5.8C0,5,0.6,4.4,1.4,4.4H25c0.8,0,1.4,0.6,1.4,1.4v2.6C26.4,9.1,25.8,9.7,25,9.7L25,9.7z
		 M1.4,5.2c-0.3,0-0.6,0.3-0.6,0.6v2.6c0,0.3,0.3,0.6,0.6,0.6H25c0.3,0,0.6-0.3,0.6-0.6V5.8c0-0.3-0.3-0.6-0.6-0.6H1.4z M1.4,5.2"/>
            <path d="M7.4,18.6c-0.2,0-0.4-0.2-0.4-0.4v-5.8C7,12.2,7.2,12,7.4,12c0.2,0,0.4,0.2,0.4,0.4v5.8C7.8,18.4,7.6,18.6,7.4,18.6
		L7.4,18.6z M7.4,18.6"/>
            <path d="M11.3,18.6c-0.2,0-0.4-0.2-0.4-0.4v-5.8c0-0.2,0.2-0.4,0.4-0.4c0.2,0,0.4,0.2,0.4,0.4v5.8C11.7,18.4,11.5,18.6,11.3,18.6
		L11.3,18.6z M11.3,18.6"/>
            <path d="M15.1,18.6c-0.2,0-0.4-0.2-0.4-0.4v-5.8c0-0.2,0.2-0.4,0.4-0.4c0.2,0,0.4,0.2,0.4,0.4v5.8C15.5,18.4,15.4,18.6,15.1,18.6
		L15.1,18.6z M15.1,18.6"/>
            <path d="M19,18.6c-0.2,0-0.4-0.2-0.4-0.4v-5.8c0-0.2,0.2-0.4,0.4-0.4c0.2,0,0.4,0.2,0.4,0.4v5.8C19.4,18.4,19.2,18.6,19,18.6
		L19,18.6z M19,18.6"/>

    </symbol>

    <!--**********************-->

    <symbol id="icon-clock" viewBox="0 0 68.6 68.5">
        <g>
            <path d="M65.8,20.9c-3.6-8.4-9.8-14.6-18.3-18.2C43.3,0.9,38.9,0,34.2,0c-4.7,0-9.1,0.9-13.3,2.7C12.5,6.4,6.3,12.5,2.7,20.9
		C0.9,25.2,0,29.6,0,34.2c0,4.6,0.9,9.1,2.7,13.3c3.6,8.4,9.8,14.6,18.2,18.2c4.2,1.8,8.7,2.7,13.3,2.7c4.6,0,9.1-0.9,13.3-2.7
		c8.5-3.6,14.6-9.8,18.3-18.2c1.8-4.2,2.7-8.7,2.7-13.3C68.6,29.6,67.7,25.2,65.8,20.9L65.8,20.9z M60.4,49.4
		c-2.7,4.6-6.4,8.3-11,11c-4.6,2.7-9.7,4.1-15.1,4.1c-4.1,0-8-0.8-11.7-2.4c-3.7-1.6-6.9-3.7-9.6-6.4c-2.7-2.7-4.8-5.9-6.4-9.6
		c-1.6-3.7-2.4-7.6-2.4-11.7c0-5.4,1.3-10.5,4-15.1c2.7-4.6,6.4-8.3,11-11c4.6-2.7,9.6-4.1,15.1-4.1c5.4,0,10.5,1.4,15.1,4.1
		c4.6,2.7,8.3,6.4,11,11c2.7,4.6,4,9.6,4,15.1C64.4,39.7,63.1,44.7,60.4,49.4L60.4,49.4z M60.4,49.4"/>
            <path d="M36.4,33.9V14.5c0-1.2-1-2.1-2.2-2.1c-1.1,0-2.1,0.9-2.1,2.1v19.7c0,0,0.1,0.2,0.1,0.3c-0.1,0.7,0.1,1.2,0.6,1.7L44,47.4
		c0.8,0.8,2.1,0.8,2.9,0c0.9-0.9,0.8-2.1,0-2.9L36.4,33.9z M36.4,33.9"/>
        </g>
    </symbol>

    <!--**********************-->

    <symbol id="icon-phone-call" viewBox="0 0 379 380.9">
        <g>
            <g>

                <path style="clip-path:url(#SVGID_2_);" d="M299.3,235.7c-7.8-8.1-17.1-12.4-27-12.4c-9.8,0-19.3,4.2-27.4,12.3l-25.3,25.2
			c-2.1-1.1-4.2-2.2-6.2-3.2c-2.9-1.4-5.6-2.8-7.9-4.2c-23.7-15-45.2-34.6-65.8-60c-10-12.6-16.7-23.3-21.6-34.1
			c6.6-6,12.6-12.2,18.6-18.2c2.2-2.2,4.5-4.6,6.7-6.8c16.8-16.8,16.8-38.6,0-55.4L121.5,57c-2.5-2.5-5-5-7.4-7.6
			c-4.8-5-9.8-10.1-15-14.9c-7.8-7.7-17-11.8-26.8-11.8c-9.8,0-19.2,4.1-27.2,11.8l-0.2,0.2L17.7,62.2C7.4,72.4,1.6,84.9,0.3,99.4
			c-1.9,23.4,5,45.1,10.2,59.4c13,35,32.3,67.4,61.2,102.1c35,41.8,77.2,74.9,125.4,98.2c18.4,8.7,43,19,70.4,20.8
			c1.7,0.1,3.4,0.2,5,0.2c18.5,0,34-6.6,46.2-19.8c0.1-0.2,0.2-0.2,0.3-0.4c4.2-5,9-9.6,14-14.5c3.4-3.3,7-6.7,10.4-10.3
			c7.9-8.2,12.1-17.8,12.1-27.7c0-9.9-4.2-19.4-12.3-27.4L299.3,235.7z M327.9,319.9C327.8,319.9,327.8,320,327.9,319.9
			c-3.1,3.4-6.3,6.4-9.8,9.8c-5.2,5-10.5,10.2-15.4,16c-8.1,8.6-17.6,12.7-30.1,12.7c-1.2,0-2.5,0-3.7-0.1
			c-23.8-1.5-45.8-10.8-62.4-18.7c-45.3-21.9-85-53-118.1-92.5c-27.3-32.9-45.5-63.3-57.6-95.9c-7.4-19.9-10.2-35.4-9-50.1
			c0.8-9.4,4.4-17.1,11-23.8l27.3-27.3c3.9-3.7,8.1-5.7,12.2-5.7c5,0,9.1,3,11.7,5.6l0.2,0.2c4.9,4.6,9.5,9.3,14.4,14.3
			c2.5,2.6,5,5.1,7.6,7.8l21.8,21.8c8.5,8.5,8.5,16.3,0,24.8c-2.3,2.3-4.6,4.6-6.9,6.9c-6.7,6.9-13.1,13.3-20.1,19.5
			c-0.2,0.2-0.3,0.2-0.4,0.4c-6.9,6.9-5.6,13.6-4.2,18.2l0.2,0.7c5.7,13.8,13.7,26.7,25.8,42.2l0.1,0.1c22.1,27.2,45.4,48.4,71,64.6
			c3.3,2.1,6.6,3.8,9.8,5.4c2.9,1.4,5.6,2.8,7.9,4.2c0.3,0.2,0.6,0.4,1,0.6c2.7,1.4,5.3,2,7.9,2c6.6,0,10.8-4.2,12.2-5.5l27.4-27.4
			c2.7-2.7,7-6,12.1-6c5,0,9,3.1,11.5,5.8l44.2,44.2C336.1,303,336.1,311.4,327.9,319.9L327.9,319.9z M327.9,319.9"/>
                <path style="clip-path:url(#SVGID_2_);" d="M204.6,91c21,3.5,40,13.4,55.2,28.6c15.2,15.2,25,34.2,28.6,55.2c0.9,5.3,5.4,9,10.6,9
			c0.6,0,1.2-0.1,1.8-0.2c5.9-1,9.8-6.6,8.9-12.5c-4.3-25.4-16.3-48.5-34.6-66.8c-18.3-18.3-41.4-30.3-66.8-34.6
			c-5.9-1-11.4,3-12.5,8.8C194.8,84.4,198.6,90.1,204.6,91L204.6,91z M204.6,91"/>
                <path style="clip-path:url(#SVGID_2_);" d="M378.3,168.1c-7.1-41.8-26.8-79.8-57-110c-30.2-30.2-68.2-49.9-110-57
			c-5.8-1-11.4,3-12.4,8.8c-1,5.9,3,11.4,8.9,12.5c37.3,6.3,71.3,24,98.3,51c27,27,44.6,61,51,98.3c0.9,5.3,5.4,9,10.6,9
			c0.6,0,1.2-0.1,1.8-0.2C375.4,179.5,379.4,173.9,378.3,168.1L378.3,168.1z M378.3,168.1"/>
            </g>
        </g>
    </symbol>

    <!--**********************-->

    <symbol id="" viewBox="0 0 120 36">

    </symbol>

    <symbol id="icon-newspaper" viewBox="0 0 442 442">
	<g>
		<path d="M171,336H70c-5.523,0-10,4.477-10,10s4.477,10,10,10h101c5.523,0,10-4.477,10-10S176.523,336,171,336z"/>
		<path d="M322,336H221c-5.523,0-10,4.477-10,10s4.477,10,10,10h101c5.522,0,10-4.477,10-10S327.522,336,322,336z"/>
		<path d="M322,86H70c-5.523,0-10,4.477-10,10s4.477,10,10,10h252c5.522,0,10-4.477,10-10S327.522,86,322,86z"/>
		<path d="M322,136H221c-5.523,0-10,4.477-10,10s4.477,10,10,10h101c5.522,0,10-4.477,10-10S327.522,136,322,136z"/>
		<path d="M322,186H221c-5.523,0-10,4.477-10,10s4.477,10,10,10h101c5.522,0,10-4.477,10-10S327.522,186,322,186z"/>
		<path d="M322,236H221c-5.523,0-10,4.477-10,10s4.477,10,10,10h101c5.522,0,10-4.477,10-10S327.522,236,322,236z"/>
		<path d="M322,286H221c-5.523,0-10,4.477-10,10s4.477,10,10,10h101c5.522,0,10-4.477,10-10S327.522,286,322,286z"/>
		<path d="M171,286H70c-5.523,0-10,4.477-10,10s4.477,10,10,10h101c5.523,0,10-4.477,10-10S176.523,286,171,286z"/>
		<path d="M171,136H70c-5.523,0-10,4.477-10,10v101c0,5.523,4.477,10,10,10h101c5.523,0,10-4.477,10-10V146
			C181,140.477,176.523,136,171,136z M161,237H80v-81h81V237z"/>
		<path d="M422,76h-30V46c0-11.028-8.972-20-20-20H20C8.972,26,0,34.972,0,46v320c0,27.57,22.43,50,50,50h342c27.57,0,50-22.43,50-50
			V96C442,84.972,433.028,76,422,76z M422,366c0,16.542-13.458,30-30,30H50c-16.542,0-30-13.458-30-30V46h352v305
			c0,13.785,11.215,25,25,25c5.522,0,10-4.477,10-10s-4.478-10-10-10c-2.757,0-5-2.243-5-5V96h30V366z"/>
	</g>
    </symbol>
    <symbol id="logo-presto-NEW" viewBox="0 0 188.35 76.75">
        <path d="M57.68,31.56c-2.34-.1-4.58,1.52-6.8,3.61a6.15,6.15,0,0,0-2.68-3.66c-.43-.26-1.8-1-2.32.15C42.46,39.14,31.07,65.9,30,69.88s.35,7.57,3.4,8.68c.95.35,1.32,0,1.68-.91,3.34-8.74,5.79-15.22,8.34-21.34,1.35,2.24,3.49,5.12,7.16,5.12,9.2,0,15.35-11.56,15.69-18.4C66.53,37.36,64.7,31.86,57.68,31.56Zm-8.24,25c-2.88,0-2.83-6-.24-12.26,1-2.41,2.14-5,4-6.9A4.19,4.19,0,0,1,56.32,36c2.27.14,2.27,3.3,2.27,4.11C58.59,47.43,52.36,56.59,49.44,56.59Z"
              transform="translate(-1.28 -1.95)" style="fill:#e10431;fill-rule:evenodd"/>
        <path d="M177.66,31.25c-6.68.52-12.49,7.08-14.25,14h0c-2.72,9.32-5.68,10.94-6.69,10.94-2,0-1.66-3.28-.63-6,.83-2.15,1.62-4.18,3.32-8.74s-.21-9.69-4.35-9.88c-3.18-.15-7.32,1.83-9.66,4-.82-2.23-1.94-4-4.6-4.19-3.13-.22-7.41,2-9.53,4.21a7.49,7.49,0,0,0-2.94-4.24,1.91,1.91,0,0,0-2.8.72c-.45,1-3.18,7.9-6.06,14.2-2.72,4.44-8.65,11-13.63,11-2.8,0-4-2.7-3.55-7.39.49-5.38,5.42-14.2,9-14.2,2.73,0-.61,6-1.44,7.8-.68,1.48,0,2.12,2,2.4,2.67.38,6.36-1.84,6.36-7.54,0-4.48-4.6-7.65-10.58-7-5.06.53-10.68,6.46-12.91,12.72C91.86,49.76,85,57.18,79.81,57.18c-2.71,0-4.12-2.72-3.5-7h0a12.68,12.68,0,0,0,15.88-12c0-4.48-4.17-7-10-7-8,0-14.5,10.22-14.5,18,0,8.19,4.67,12.26,11,12.26,5.55,0,10.77-3.36,15.56-7.7,1.44,5.16,5.45,7.73,10.46,7.73,4.85,0,9.37-2.71,12.18-4.7a6.22,6.22,0,0,0,4,4.27c1,.24,1.31-.22,1.7-1.15,3.11-7.52,5.35-13.53,7-16.58,2.29-4.22,4.87-5.55,5.88-5.55,2.22,0,2.42,2.47,1.76,4.2-1.4,3.66-3.88,8.31-4.74,10.8-1.32,3.83.48,7.4,4,8.28,1,.24,1.35-.2,1.69-1.15,2.21-6.12,5.72-15.17,6.84-18s3.23-4.17,4.51-4.17c2.21,0,2.42,2.47,1.75,4.2-1,2.74-1.38,3-2.92,7-2.42,6.35-.09,12.39,5.31,12.39,3.52,0,6.4-1.43,10.38-5.44,1.69,3.56,5,5.46,9.45,5.46,5.33,0,16-5.42,16-18.65C189.63,34.66,183.55,30.8,177.66,31.25ZM85.29,35.6c2.08,0,.94,5-2.06,8.24A8,8,0,0,1,77,46.58h0C78.5,41.49,82.4,35.6,85.29,35.6ZM173,56.92c-1.83,0-2.15-2.76-2.15-5.31,0-8.21,5.55-16.08,8.61-16.08,1.65,0,2.75,1.6,2.75,3.66C182.24,47.43,176.71,56.92,173,56.92Z"
              transform="translate(-1.28 -1.95)" style="fill:#e10431;fill-rule:evenodd"/>
        <path d="M44.54,17.74a10,10,0,0,0-2.61-4.29c-.68-.5-1.65-.64-2,.11-4.4,9.78-15.29,31.36-17.77,37.5a6.1,6.1,0,0,0-.35,3.9c.42,2.21,2.75,5.34,5.18,5.93a1.15,1.15,0,0,0,1.6-.85c5.2-14.9,11.16-29.39,15.68-39.59A3.6,3.6,0,0,0,44.54,17.74Z"
              transform="translate(-1.28 -1.95)" style="fill:#e10431;fill-rule:evenodd"/>
        <path d="M29.91,19a9.88,9.88,0,0,0-2.52-4.34c-.66-.52-1.62-.69-2,.06-4.62,9.67-15.89,30-18.51,36.12a6,6,0,0,0-.44,3.89c.36,2.22,2.61,5.41,5,6a1.13,1.13,0,0,0,1.62-.8c5.56-14.77,11.71-28.18,16.48-38.27A3.61,3.61,0,0,0,29.91,19Z"
              transform="translate(-1.28 -1.95)" style="fill:#e10431;fill-rule:evenodd"/>
        <path d="M9.31,33.28C7.17,16.5,23.5,5.93,37.22,6.52,49.65,7.07,53.91,16,51,23.54c-.46,1.18-1.06,2.82.94,2.82,4.2,0,6.95-4,6.95-8.54C58.9,13.85,54.32,2,36,2,12,2,1.2,17.52,1.28,27.53c0,5.39,3.56,7.63,6.41,7.63A1.53,1.53,0,0,0,9.31,33.28Z"
              transform="translate(-1.28 -1.95)" style="fill:#e10431;fill-rule:evenodd"/>
    </symbol>

	<symbol id="icon-download" viewBox="0 0 512 512">
        <path d="m409.785156 278.5-153.785156 153.785156-153.785156-153.785156 28.285156-28.285156 105.5 105.5v-355.714844h40v355.714844l105.5-105.5zm102.214844 193.5h-512v40h512zm0 0"/>
    </symbol>


</svg>