<?xml version="1.0" standalone="no"?>
<!DOCTYPE svg PUBLIC "-//W3C//DTD SVG 20010904//EN"
 "http://www.w3.org/TR/2001/REC-SVG-20010904/DTD/svg10.dtd">
<svg version="1.0" xmlns="http://www.w3.org/2000/svg"
 width="260.000000pt" height="260.000000pt" viewBox="0 0 260.000000 260.000000"
 preserveAspectRatio="xMidYMid meet">
<metadata>
Created by potrace 1.11, written by Peter Selinger 2001-2013
</metadata>
<g transform="translate(0.000000,260.000000) scale(0.100000,-0.100000)"
fill="#000000" stroke="none">
<path d="M1085 2584 c-552 -96 -988 -536 -1070 -1080 -31 -206 -12 -427 55
-624 157 -469 577 -810 1075 -871 83 -11 304 -7 365 5 257 53 451 143 625 289
152 127 291 314 360 484 15 37 31 77 36 88 64 156 85 449 48 656 -96 537 -507
946 -1060 1054 -70 14 -353 13 -434 -1z m660 -387 c11 -3 43 -11 70 -18 284
-70 482 -337 404 -545 -11 -30 -31 -67 -45 -83 -42 -50 -136 -81 -170 -56 -17
12 -16 16 5 85 87 274 -106 493 -434 494 -156 1 -253 -19 -380 -78 -99 -46
-171 -95 -240 -163 -140 -139 -205 -295 -202 -488 1 -112 -7 -128 -66 -121
-66 8 -115 48 -147 119 -30 66 -22 199 17 297 115 291 395 491 773 555 72 13
371 14 415 2z m0 -344 c36 -37 65 -96 67 -136 0 -20 -34 -113 -92 -247 -50
-118 -107 -255 -126 -305 -19 -49 -39 -99 -44 -110 -16 -33 -69 -173 -112
-290 -37 -103 -88 -242 -109 -292 -15 -39 -66 -25 -124 33 -47 47 -74 107 -75
163 0 50 39 143 200 476 245 505 327 676 341 713 12 30 40 28 74 -5z m-432
-37 c33 -39 59 -99 60 -135 0 -22 -15 -69 -40 -121 -126 -264 -275 -605 -378
-865 -48 -121 -92 -225 -97 -232 -15 -18 -67 2 -109 43 -51 50 -82 125 -77
184 4 41 122 292 227 483 69 127 220 415 295 565 51 102 59 112 79 106 12 -3
30 -16 40 -28z"/>
</g>
</svg>
